<svg id="Слой_7" data-name="Слой 7" xmlns="http://www.w3.org/2000/svg" viewBox="0 0 420.5 475.82"><defs><style>.cls-1,.cls-2{fill:#1a1a1a;}.cls-1{stroke:#000;stroke-miterlimit:10;}.cls-3{fill:#fff;}.cls-4{fill:none;}</style></defs><title>logo</title><path class="cls-1" d="M79.93,477.47h15V480H93.32a4.92,4.92,0,0,0-2.13.31,1.55,1.55,0,0,0-.87,1.44,8.31,8.31,0,0,0,.48,2.21l8.57,27.85,7.45-22.94-1.76-5.48a4,4,0,0,0-4.64-3.39v-2.51h14.86V480h-1.41a4.49,4.49,0,0,0-2.46.46,1.42,1.42,0,0,0-.62,1.23,9.13,9.13,0,0,0,.47,2.27l8.6,28,8.66-28a8.49,8.49,0,0,0,.45-2.24,1.47,1.47,0,0,0-.6-1.29A4.37,4.37,0,0,0,126,480h-1.5v-2.51h12.76V480a6.06,6.06,0,0,0-2.41.32,3.26,3.26,0,0,0-1.31,1,8.7,8.7,0,0,0-1.1,2.64l-11.54,35.31h-4.34l-8-25.07-8.11,25.07H96.11L84.78,483.94a6.26,6.26,0,0,0-2-3.38,5.31,5.31,0,0,0-2.84-.58Z" transform="translate(-69.28 -44.64)"/><path class="cls-1" d="M141,477.47h34l3.93,11-2.64,1a16.46,16.46,0,0,0-2.16-4.24,11.27,11.27,0,0,0-2.8-2.62,9.72,9.72,0,0,0-3.3-1.44,33.23,33.23,0,0,0-6-.36H151.8V496.1h5a7.71,7.71,0,0,0,4.22-1,4.91,4.91,0,0,0,2-2.35,10.94,10.94,0,0,0,.42-3.65v-.69h2.94v18.33h-2.94V505.2a10.33,10.33,0,0,0-.31-3,4.53,4.53,0,0,0-1.16-1.76,4.58,4.58,0,0,0-1.82-1.12,12.62,12.62,0,0,0-3.31-.3h-5v13.57a9.46,9.46,0,0,0,.2,2.59,1.24,1.24,0,0,0,.64.67,8.1,8.1,0,0,0,2.46.21h6.27a21.68,21.68,0,0,0,8.2-1.25,14.15,14.15,0,0,0,5.2-3.86,22.4,22.4,0,0,0,3.39-5.73l2.72,1-4.67,13.09H141v-2.52h1.2a7.26,7.26,0,0,0,2.6-.27,2.59,2.59,0,0,0,1.2-1.24,7,7,0,0,0,.3-2.59V483.85a5.87,5.87,0,0,0-.39-2.63,2.57,2.57,0,0,0-1.35-1A15.5,15.5,0,0,0,141,480Z" transform="translate(-69.28 -44.64)"/><path class="cls-1" d="M184.69,477.47h19.87a49.48,49.48,0,0,1,10,.66,12.13,12.13,0,0,1,6.31,3.47,9.06,9.06,0,0,1,1.09,10.61,10.35,10.35,0,0,1-3.56,3.45,14.82,14.82,0,0,1-4.08,1.59,19.75,19.75,0,0,1,5,1.44,9.92,9.92,0,0,1,4.07,3.59,9.65,9.65,0,0,1,1.49,5.28,10,10,0,0,1-1.47,5.27,11.46,11.46,0,0,1-4.15,4,16.09,16.09,0,0,1-6.24,2,60.56,60.56,0,0,1-7.34.44H184.69v-2.52h1.4a4.5,4.5,0,0,0,2.79-.63,3.47,3.47,0,0,0,1.08-2.87v-29a8,8,0,0,0-.33-2.81,2.1,2.1,0,0,0-1-1.08,6.29,6.29,0,0,0-2.55-.34h-1.4Zm10.87,3.32V496.1h7.65a34.73,34.73,0,0,0,7.35-.51,8.92,8.92,0,0,0,4.72-2.76,7.5,7.5,0,0,0,1.63-5,6.35,6.35,0,0,0-1.48-4.3,7.53,7.53,0,0,0-4-2.35,36,36,0,0,0-6.72-.39Zm0,18.18v13.72a8.83,8.83,0,0,0,.18,2.45,1.4,1.4,0,0,0,1,.75,15,15,0,0,0,2.87.15h4.08a38.56,38.56,0,0,0,8.64-.67,8.44,8.44,0,0,0,4.41-2.85,7.82,7.82,0,0,0,1.83-5.22,7.44,7.44,0,0,0-1.48-4.57,8.17,8.17,0,0,0-4.11-2.87q-2.61-.89-9.29-.89Z" transform="translate(-69.28 -44.64)"/><path class="cls-1" d="M278.22,477.47h2.16l3.2,12.88-2.78.83a22.15,22.15,0,0,0-7-8.53,13.25,13.25,0,0,0-8-2.61,11.42,11.42,0,0,0-4.73.95,7.46,7.46,0,0,0-3.14,2.43,5.34,5.34,0,0,0-1,3.05,5.09,5.09,0,0,0,.81,2.72,7.14,7.14,0,0,0,2.45,2.32,24.56,24.56,0,0,0,5.4,2.11l7.81,2.31a38.23,38.23,0,0,1,4.18,1.62,16.68,16.68,0,0,1,4.27,2.53,9.48,9.48,0,0,1,2.39,3.27,10.06,10.06,0,0,1,.87,4.18,11.17,11.17,0,0,1-4.36,8.71Q276.4,520,269.48,520a18.36,18.36,0,0,1-6.38-1,21.93,21.93,0,0,1-6.08-3.67l-1.38,4h-2.1l-2.78-15,2.78-.57a22.22,22.22,0,0,0,4.06,7.07,17.57,17.57,0,0,0,5.6,4.39,14.22,14.22,0,0,0,6.25,1.48A11.69,11.69,0,0,0,277,514a6.49,6.49,0,0,0,2.7-5.15,5.72,5.72,0,0,0-1.95-4.47c-1.32-1.16-3.67-2.23-7.07-3.23L263.19,499q-6.3-1.83-8.87-4.67a9.43,9.43,0,0,1-2.57-6.53,9.19,9.19,0,0,1,1.67-5.32,12.62,12.62,0,0,1,5.15-4.08,17.55,17.55,0,0,1,7.61-1.65,18.65,18.65,0,0,1,6.65,1.2,14.14,14.14,0,0,1,4.13,2.39Z" transform="translate(-69.28 -44.64)"/><path class="cls-1" d="M291.43,476.06h2.1l.3,1.41h25.63l.24-1.41h2.19l4.4,12.28-2.69,1q-2-4.92-4.62-6.91a11.13,11.13,0,0,0-6.83-2,8.29,8.29,0,0,0-2.06.14.82.82,0,0,0-.47.46,8.79,8.79,0,0,0-.13,2.1v29a11.23,11.23,0,0,0,.22,2.79,2.52,2.52,0,0,0,.65,1.1,2.44,2.44,0,0,0,1.15.56,20.85,20.85,0,0,0,3.28.19v2.52H298.68v-2.52a20.66,20.66,0,0,0,3.26-.18,2.33,2.33,0,0,0,1.5-1.14,7.37,7.37,0,0,0,.45-3.11V482.71a5.74,5.74,0,0,0-.14-1.68.93.93,0,0,0-.51-.46,4.52,4.52,0,0,0-1.54-.17,13.45,13.45,0,0,0-5.22.84,10.26,10.26,0,0,0-3.7,2.85,17.27,17.27,0,0,0-3,5.21l-2.69-1Z" transform="translate(-69.28 -44.64)"/><path class="cls-1" d="M328.06,477.47H344.2V480h-1.08a7,7,0,0,0-2.81.4,2,2,0,0,0-1,1,8.22,8.22,0,0,0-.33,2.9v18.82q0,5,1.21,7.47a9.89,9.89,0,0,0,4.05,4.07,12.07,12.07,0,0,0,6.21,1.65,12.71,12.71,0,0,0,6.47-1.77,10.41,10.41,0,0,0,4.28-4.19q1.23-2.43,1.23-7.68v-18.1a7.61,7.61,0,0,0-.39-2.87,2.61,2.61,0,0,0-1.18-1.29,5.35,5.35,0,0,0-2.47-.43h-1.17v-2.51h14V480h-1a4.52,4.52,0,0,0-3.25.91c-.59.6-.89,1.74-.89,3.41v19.25a17.7,17.7,0,0,1-2,8.79,14.25,14.25,0,0,1-5.75,5.58,19.34,19.34,0,0,1-17.43,0,14.22,14.22,0,0,1-5.77-5.23,15.24,15.24,0,0,1-1.84-7.86V484.3a7.5,7.5,0,0,0-.36-2.79,2.3,2.3,0,0,0-1.05-1.16,5.44,5.44,0,0,0-2.39-.37h-1.5Z" transform="translate(-69.28 -44.64)"/><path class="cls-1" d="M376.46,480v-2.51h14.91q10.25,0,14.29,1.29a18.51,18.51,0,0,1,9.67,7,22.78,22.78,0,0,1,2.08,22.45,18.92,18.92,0,0,1-5.31,7,16.08,16.08,0,0,1-6.56,3.13,33.2,33.2,0,0,1-7.73.92H376.46v-2.52h1.73l.57,0a3.34,3.34,0,0,0,1.82-.45,2.54,2.54,0,0,0,1-1.2,9.75,9.75,0,0,0,.21-2.63V484.54a9.67,9.67,0,0,0-.3-3.08,2.42,2.42,0,0,0-1.35-1.3A19.47,19.47,0,0,0,376.46,480ZM387.33,516h9.06a34.11,34.11,0,0,0,4.48-.48,15.94,15.94,0,0,0,4.48-1.17,12.38,12.38,0,0,0,3.84-3.28,16.1,16.1,0,0,0,2.86-5.42,23.89,23.89,0,0,0,1-7.24,22,22,0,0,0-1-7,16,16,0,0,0-3-5.33,14.31,14.31,0,0,0-4.49-3.61,16.07,16.07,0,0,0-5.54-1.58c-1.1-.1-2.94-.15-5.51-.15h-6.15Z" transform="translate(-69.28 -44.64)"/><path class="cls-1" d="M425,477.47h16V480H439.8a4.84,4.84,0,0,0-2.51.49,2.76,2.76,0,0,0-1.14,1.37,10.72,10.72,0,0,0-.36,3.44v26.93a7.59,7.59,0,0,0,.39,2.89,2.57,2.57,0,0,0,1.09,1.24,5.71,5.71,0,0,0,2.53.39H441v2.52H425v-2.52h1.31a5.61,5.61,0,0,0,2.51-.4,2.41,2.41,0,0,0,1.06-1.17,8.64,8.64,0,0,0,.33-2.95V484.66a9.57,9.57,0,0,0-.33-3.12,2.24,2.24,0,0,0-1.06-1.18,6,6,0,0,0-2.51-.38H425Z" transform="translate(-69.28 -44.64)"/><path class="cls-1" d="M468.57,476.75a19.84,19.84,0,0,1,10.34,2.75,20.88,20.88,0,0,1,7.69,7.7,21.84,21.84,0,0,1,2.68,11q0,9.64-6,15.73A20.58,20.58,0,0,1,468,520q-10.37,0-16.42-7.31a21.6,21.6,0,0,1-4.95-14.26,21.93,21.93,0,0,1,2.79-11.06,20.13,20.13,0,0,1,7.91-7.75A22.84,22.84,0,0,1,468.57,476.75Zm0,3.23a14.72,14.72,0,0,0-8.05,2.14,15,15,0,0,0-5.38,6.31,23.21,23.21,0,0,0-2,10.27,22.25,22.25,0,0,0,2,9.9,15,15,0,0,0,5.35,6.22A13.76,13.76,0,0,0,468,517a13.1,13.1,0,0,0,7.38-2.11,15.42,15.42,0,0,0,5.31-6.65,23.68,23.68,0,0,0,2.1-10.08,24.83,24.83,0,0,0-2.1-10.3A12.13,12.13,0,0,0,468.56,480Z" transform="translate(-69.28 -44.64)"/><path class="cls-2" d="M290.61,104.17A172.68,172.68,0,1,0,463.29,276.84,172.67,172.67,0,0,0,290.61,104.17Zm0,342.09A169.42,169.42,0,1,1,460,276.84,169.42,169.42,0,0,1,290.61,446.26Z" transform="translate(-69.28 -44.64)"/><path d="M290.61,450.26a172.9,172.9,0,1,1,67.5-13.63A172.38,172.38,0,0,1,290.61,450.26Zm0-345.35c-94.8,0-171.93,77.13-171.93,171.93s77.13,171.93,171.93,171.93,171.93-77.13,171.93-171.93S385.42,104.91,290.61,104.91Zm0,342.09a169.56,169.56,0,1,1,66.24-13.37A169.14,169.14,0,0,1,290.61,447Zm0-338.83c-93,0-168.67,75.66-168.67,168.67s75.67,168.67,168.67,168.67,168.68-75.66,168.68-168.67S383.62,108.17,290.61,108.17Z" transform="translate(-69.28 -44.64)"/><circle class="cls-2" cx="221.33" cy="232.2" r="169.42"/><path class="cls-3" d="M290.61,447.48A170.15,170.15,0,1,1,357,434.07,169.57,169.57,0,0,1,290.61,447.48Zm0-338.83c-92.74,0-168.19,75.45-168.19,168.19S197.87,445,290.61,445,458.8,369.58,458.8,276.84,383.35,108.65,290.61,108.65Z" transform="translate(-69.28 -44.64)"/><path class="cls-3" d="M453,233.17c-.35.06-.73.14-1.12.23-10.11,2.37-32.3,14.33-33.88,15.18l-.08,0a22.45,22.45,0,0,1-.62,2.33h0a31.17,31.17,0,0,1-1.44,3.64c-9.52,20.45-44.32,47.76-44.32,47.76,1.72,2.21-2.26,8.49-3.92,10.79-28.46,39.5-53.85,45.56-78.76,56.19C259.16,382,146,353.64,146,353.64l-19.16-4.34-1.45-.33c-3.82-12.41,1-38.83,1-65.75,0-2,.78-5.41,3.92-12.76,8.84-20.61,16-24.54,29.45-44.9s14-16.68,20.36-19.38a43.86,43.86,0,0,0,11.53-7.61c4.66-9.81,2.7-3.43,17.18-11s9.81,2,16.68-5.64S243.44,175,243.44,175c8.1-10.8,17.18-6.38,17.18-6.38,5.64-4.66,9.81-2.21,9.81-2.21,9.08-14.23,24.29-8.09,24.29-8.09C305.27,142.88,309,146.8,309,146.8c12.51-17.17,21.35-11,21.35-11,7.36-8.09,14.47-8.58,14.47-8.58,33.37-8.59,49.56,2.21,49.56,2.21,11,.49,12.76,5.88,12.76,5.88,13.25-2.94,14.23,9.08,14.23,9.08,7.36,3.93,2.95,8.83,2.95,8.83,16.19,1.72,16.19,18.41,16.19,18.41,13.25,1.71,9.81,16.68,9.81,16.68C464.26,220.66,453,233.17,453,233.17Z" transform="translate(-69.28 -44.64)"/><path class="cls-2" d="M453.06,233.33l-1.22.29-1.14.33c-.77.21-1.52.49-2.27.75s-1.5.55-2.24.84l-1.11.44-1.11.47c-2.94,1.24-5.84,2.58-8.71,4s-5.73,2.85-8.57,4.33c-1.41.74-2.83,1.48-4.24,2.24l-2.1,1.14-2.08,1.14.36-.5a22.55,22.55,0,0,1-.61,2.42l-.16.54h-.59l.75-.54a30.12,30.12,0,0,1-1.62,4.14l-.48,1c-.16.33-.32.67-.5,1l-.53,1c-.18.32-.35.65-.54,1a76.74,76.74,0,0,1-4.89,7.3c-1.75,2.34-3.59,4.61-5.49,6.82s-3.87,4.37-5.88,6.48q-6,6.31-12.48,12.19-3.23,2.94-6.53,5.8c-2.2,1.9-4.41,3.77-6.7,5.61l.24-2a3.48,3.48,0,0,1,.67,1.66,5.4,5.4,0,0,1,0,1.45,11.23,11.23,0,0,1-.63,2.4,27.86,27.86,0,0,1-2,4.1c-.38.65-.78,1.28-1.19,1.9l-.64.93-.64.88-1.28,1.76c-.43.59-.85,1.17-1.3,1.75a165.54,165.54,0,0,1-11.19,13.36,130.05,130.05,0,0,1-12.74,12,117,117,0,0,1-14.34,10,141.36,141.36,0,0,1-15.56,7.93c-5.3,2.36-10.7,4.45-16,6.6l-4,1.62-2,.82c-.32.14-.69.28-1,.42l-.54.2-.26.1-.27.09a46.53,46.53,0,0,1-8.75,1.89c-2.92.36-5.84.55-8.76.63s-5.82.05-8.72,0-5.8-.26-8.69-.47-5.77-.47-8.65-.77c-5.75-.59-11.48-1.34-17.19-2.17s-11.41-1.78-17.09-2.78-11.35-2.07-17-3.2q-17-3.37-33.81-7.28c-2.81-.64-5.61-1.31-8.42-2l-4.2-1c-1.39-.33-2.8-.64-4.2-1l-16.86-3.81-.32-.07-.09-.31a32.55,32.55,0,0,1-1.1-5.49c-.22-1.85-.32-3.69-.38-5.54s-.06-3.69,0-5.53.09-3.68.17-5.52c.33-7.35.91-14.66,1.31-22s.73-14.63.67-22a13.71,13.71,0,0,1,.37-2.91c.21-.94.47-1.84.74-2.73.56-1.79,1.21-3.53,1.9-5.25q2.06-5.14,4.54-10.12a89.5,89.5,0,0,1,5.57-9.63c2-3.11,4.25-6.07,6.48-9s4.44-5.83,6.59-8.78c1.06-1.48,2.14-2.95,3.17-4.46.51-.75,1-1.49,1.55-2.25l1.51-2.28,3.05-4.6c1.05-1.52,2.08-3.05,3.17-4.55l.82-1.13.84-1.12c.29-.37.56-.74.86-1.11l.89-1.09A26.46,26.46,0,0,1,171.7,208l.65-.44a4.93,4.93,0,0,1,.66-.42l.71-.38c.24-.12.48-.21.73-.32,1-.39,1.93-.63,2.76-.88l.32-.09.3-.1.61-.2c.39-.16.78-.3,1.18-.47s.79-.35,1.18-.55.78-.38,1.17-.6a40.36,40.36,0,0,0,4.47-2.82c.71-.52,1.42-1.05,2.11-1.61l1-.85c.32-.28.67-.59,1-.86l-.36.49c.54-1.14,1.08-2.28,1.72-3.44a12.35,12.35,0,0,1,1.18-1.81c.12-.15.25-.3.4-.46s.32-.3.49-.45a5.74,5.74,0,0,1,1.14-.72c.2-.1.38-.16.58-.24l.53-.17.5-.14.47-.12c.61-.16,1.19-.3,1.76-.46,1.14-.33,2.26-.72,3.37-1.16s2.21-.94,3.3-1.47c.55-.27,1.1-.53,1.63-.81l1.67-.87c.57-.29,1.16-.56,1.74-.85s1.19-.53,1.81-.77a19.75,19.75,0,0,1,3.93-1.16,10.06,10.06,0,0,1,2.29-.13,8.31,8.31,0,0,1,1.2.19,10.26,10.26,0,0,1,1,.31l.2.06.14,0,.09,0h0s0,0,0,0h0l0,0,.08,0,.11-.07.06,0,.06-.05.14-.1a7.59,7.59,0,0,0,.58-.49c.19-.17.4-.39.6-.58s.41-.42.61-.64l.62-.67c.24-.25.46-.51.71-.74a20,20,0,0,1,3.18-2.57,24.37,24.37,0,0,1,7.38-3.19,29.08,29.08,0,0,1,3.92-.73c.66-.08,1.32-.13,2-.16.33,0,.67,0,1,0h1.07l-1.62.74a24,24,0,0,1,3.63-3.93l.52-.44.54-.42c.36-.28.75-.52,1.13-.78a17.62,17.62,0,0,1,2.47-1.3,15.25,15.25,0,0,1,5.51-1.19,14.87,14.87,0,0,1,2.83.22c.47.09.94.19,1.4.32l.7.22.36.14.19.07.1,0,.13.06-2.07.25,1.18-.9c.43-.27.84-.56,1.28-.81s.9-.49,1.39-.68c.24-.1.48-.21.73-.29l.76-.24a10.52,10.52,0,0,1,3.23-.38,8,8,0,0,1,.84.08,8.22,8.22,0,0,1,.84.15l.41.11.42.13a3.2,3.2,0,0,1,.43.17l.23.1.29.15-2.63.63a24.46,24.46,0,0,1,4.95-5.68,20.17,20.17,0,0,1,3.18-2.15,20.82,20.82,0,0,1,3.54-1.51,22.23,22.23,0,0,1,7.53-1,24.61,24.61,0,0,1,3.74.42c.62.11,1.23.25,1.84.41.31.08.61.17.92.27l.46.15.51.18-2.37.72c.94-1.36,1.9-2.72,2.93-4a49.4,49.4,0,0,1,3.29-3.86,23.38,23.38,0,0,1,4.05-3.47,9.63,9.63,0,0,1,2.78-1.27,5.55,5.55,0,0,1,1.87-.17,4.46,4.46,0,0,1,1.09.24,4.26,4.26,0,0,1,.58.27l.14.08.16.11.16.12.1.08.05.05,0,0,.06.06-3,.19a52.1,52.1,0,0,1,4.33-5.22,31,31,0,0,1,5.26-4.52c.48-.34,1-.64,1.51-.95s1.06-.57,1.62-.81A15.25,15.25,0,0,1,323.6,133a12.32,12.32,0,0,1,3.84-.16,11,11,0,0,1,1.94.41c.32.11.64.22,1,.36l.48.23.25.14.14.08.18.11-2.51.29c.53-.54,1-1.09,1.58-1.62l.83-.77.42-.39.44-.36.88-.72c.29-.25.6-.46.91-.69.6-.46,1.25-.87,1.89-1.29a27.89,27.89,0,0,1,4.12-2.08c.36-.14.72-.28,1.1-.4l.55-.19.57-.16a5.47,5.47,0,0,1,.58-.15,5.11,5.11,0,0,1,.59-.13c.2,0,.39-.09.6-.12l.32,0,.38,0-.33,0A108.23,108.23,0,0,1,357,122.93c1.07-.14,2.13-.28,3.21-.37.53,0,1.07-.11,1.61-.15l1.61-.12.81-.05.8,0,1.62-.07c1.08,0,2.16,0,3.24,0s2.16.06,3.24.11,2.16.14,3.24.26a63.82,63.82,0,0,1,6.44,1,50.58,50.58,0,0,1,6.32,1.73c1,.37,2.06.76,3.07,1.21.51.23,1,.47,1.51.73.25.12.5.26.75.4l.38.22.42.25-.83-.26,1.93.15c.65.08,1.29.19,1.94.28l1,.2c.32.08.64.13,1,.23a19.38,19.38,0,0,1,1.91.63l.47.18.23.09.24.11.92.45.89.53c.3.19.58.41.86.61s.55.46.82.7l.38.38.19.2.18.21a8.9,8.9,0,0,1,.67.91c.1.17.2.33.29.51s.1.19.14.29l.07.16,0,.08,0,.13-1.77-1a18.43,18.43,0,0,1,5.27-.43,11.49,11.49,0,0,1,5.26,1.64,10.79,10.79,0,0,1,3.78,4.05,13.9,13.9,0,0,1,1.06,2.49c.13.43.25.86.34,1.3,0,.22.1.44.13.66s0,.23,0,.35,0,.22.05.38l-.73-1.11a13.36,13.36,0,0,1,2.52,1.74,7.47,7.47,0,0,1,2,2.67,5.92,5.92,0,0,1,.42,1.73,5.68,5.68,0,0,1-.13,1.75,6.24,6.24,0,0,1-.58,1.6,7.24,7.24,0,0,1-.41.71l-.24.35-.13.17-.17.2-.82-2.15a21.43,21.43,0,0,1,6.87,2,17.82,17.82,0,0,1,3.06,1.95,17.63,17.63,0,0,1,2.56,2.55,19.84,19.84,0,0,1,3.38,6.26,23.81,23.81,0,0,1,.87,3.42c.11.58.19,1.16.25,1.74,0,.29.06.59.08.88s0,.58,0,.93l-.92-1a13.87,13.87,0,0,1,5.6,2,10.81,10.81,0,0,1,3.94,4.51,15.61,15.61,0,0,1,1.37,5.68,21.28,21.28,0,0,1,0,2.88c0,.48-.09.95-.15,1.43s-.15.94-.26,1.44l-.05-.51a106.89,106.89,0,0,1,4,11.1,71.86,71.86,0,0,1,2.39,11.54,55.09,55.09,0,0,1,.36,5.89,41.32,41.32,0,0,1-.42,5.88,29.87,29.87,0,0,1-1.4,5.74,24.88,24.88,0,0,1-1.17,2.71,14.69,14.69,0,0,1-.74,1.28c-.13.21-.27.42-.42.62l-.22.3-.12.14-.06.08,0,0Zm-.18-.32h0l0,0,.05-.07.11-.14.2-.29c.14-.2.27-.41.39-.61.24-.42.46-.84.68-1.28a21.27,21.27,0,0,0,1.05-2.68,28.15,28.15,0,0,0,1.2-5.65,39.87,39.87,0,0,0,.25-5.78,53.06,53.06,0,0,0-.51-5.77,71.86,71.86,0,0,0-2.64-11.28,105.21,105.21,0,0,0-4.15-10.84l-.1-.23.05-.27c.08-.4.15-.86.2-1.29s.09-.88.11-1.33a19.53,19.53,0,0,0,0-2.65,13.69,13.69,0,0,0-1.3-5c-.1-.19-.19-.38-.3-.56l-.33-.54-.37-.5c-.13-.17-.28-.31-.41-.47a8.6,8.6,0,0,0-1.91-1.59,12.11,12.11,0,0,0-4.81-1.55l-.89-.12,0-.92c0-.22,0-.51-.05-.77s-.05-.53-.08-.79c-.07-.53-.16-1.06-.26-1.59a23.15,23.15,0,0,0-.86-3.09,17.64,17.64,0,0,0-3.08-5.49,15.24,15.24,0,0,0-2.24-2.16,16.67,16.67,0,0,0-2.65-1.63,18.92,18.92,0,0,0-6.06-1.6l-.82-2.15.05-.07.08-.1a1.64,1.64,0,0,0,.14-.22,4.39,4.39,0,0,0,.27-.47,4.84,4.84,0,0,0,.34-1,3.12,3.12,0,0,0-.19-1.89,5,5,0,0,0-1.31-1.68,10.87,10.87,0,0,0-2-1.33l-.62-.33-.11-.78,0-.22,0-.26c0-.17-.07-.35-.11-.52-.08-.36-.18-.71-.29-1.05a10.91,10.91,0,0,0-.87-2,8,8,0,0,0-2.82-3,8.47,8.47,0,0,0-4-1.16,15.47,15.47,0,0,0-4.4.43l-1.77-1v0l0,0-.06-.13c-.05-.08-.12-.18-.17-.28a5.57,5.57,0,0,0-.43-.56l-.12-.14-.14-.13-.26-.27c-.2-.16-.39-.33-.6-.49s-.42-.3-.65-.44l-.69-.4-.74-.35-.18-.09-.2-.07-.39-.14a14.16,14.16,0,0,0-1.6-.5c-.27-.09-.55-.12-.83-.19l-.84-.17c-.57-.07-1.14-.16-1.72-.22l-1.74-.12-.44,0-.38-.23-.26-.16-.31-.17-.66-.34q-.66-.33-1.35-.63c-.92-.4-1.87-.75-2.83-1.08a49.57,49.57,0,0,0-5.92-1.57,59.3,59.3,0,0,0-6.1-.87c-1-.11-2.06-.16-3.09-.23s-2.06-.08-3.09-.07-2.07,0-3.1,0l-1.55.08-.78,0-.77.06-1.55.12c-.51,0-1,.11-1.55.16-1,.1-2,.25-3.08.39A108.81,108.81,0,0,0,345.23,129l-.08,0-.25,0-.15,0-.21,0c-.15,0-.3.06-.45.09s-.3.07-.46.1l-.46.13-.46.13-.46.16c-.31.1-.61.22-.91.34a23.42,23.42,0,0,0-3.52,1.81c-.55.37-1.11.72-1.64,1.14-.27.2-.55.39-.8.6l-.77.65-.39.32-.37.35-.73.69c-.48.48-.94,1-1.41,1.46l-2.51.28c.05,0,0,0,0,0l0,0-.11-.06-.25-.12c-.18-.08-.38-.14-.57-.21a7.28,7.28,0,0,0-1.25-.25,8.56,8.56,0,0,0-2.66.13,12.16,12.16,0,0,0-2.66.87c-.44.19-.87.43-1.3.66s-.84.5-1.25.79a27.84,27.84,0,0,0-4.6,4,50.45,50.45,0,0,0-4,4.84l-3,.19.07.07,0,0,0,0,0,0,0,0h0l-.09,0a1.88,1.88,0,0,0-.55.07,5.86,5.86,0,0,0-1.62.77,19.57,19.57,0,0,0-3.32,2.88,45.28,45.28,0,0,0-3,3.55c-1,1.25-1.89,2.54-2.79,3.85l-.86,1.26-1.51-.54-.31-.11-.36-.12-.76-.22c-.51-.13-1-.25-1.55-.34a20.94,20.94,0,0,0-3.16-.36,18.61,18.61,0,0,0-6.19.77A17.93,17.93,0,0,0,278.8,161a16.51,16.51,0,0,0-2.57,1.73,21.11,21.11,0,0,0-4.16,4.75l-2.63.63c.05,0,0,0,0,0l-.07,0-.19-.07-.21-.07a2,2,0,0,0-.23-.06,3.55,3.55,0,0,0-.47-.09,3.91,3.91,0,0,0-.48,0,6.73,6.73,0,0,0-2,.24l-.51.15-.51.2c-.34.12-.66.32-1,.48s-.64.41-1,.61l-.93.7-.95.72-1.11-.47-.16-.07-.22-.08-.48-.15a8.72,8.72,0,0,0-1-.24,11,11,0,0,0-6.21.69,15.71,15.71,0,0,0-1.91,1c-.3.21-.61.4-.9.63l-.44.33-.43.36a20.74,20.74,0,0,0-3.09,3.31l-.59.79-1-.05h-1.66c-.58,0-1.16.07-1.74.14a26.18,26.18,0,0,0-3.43.61,21.11,21.11,0,0,0-6.3,2.67,16.68,16.68,0,0,0-2.64,2.1c-.2.19-.39.4-.58.6s-.21.22-.32.34l-.33.35c-.22.24-.46.48-.69.71s-.47.48-.74.71-.55.47-.86.71l-.25.18-.12.08-.15.09-.29.17a3.54,3.54,0,0,1-.34.16l-.18.08-.2.07a2.7,2.7,0,0,1-.43.11c-.16,0-.31.05-.47.06s-.32,0-.47,0a5.54,5.54,0,0,1-1.34-.31c-.31-.11-.53-.18-.75-.24s-.42-.08-.64-.1a6,6,0,0,0-1.44.08,16.14,16.14,0,0,0-3.22.94c-.55.2-1.09.45-1.63.68s-1.09.5-1.63.78l-1.66.85c-.56.29-1.14.56-1.71.84-1.16.55-2.34,1.07-3.54,1.54s-2.45.89-3.71,1.24c-.62.18-1.26.33-1.85.48a8.42,8.42,0,0,0-1.48.44,2.34,2.34,0,0,0-.44.27c-.06.06-.13.11-.2.19a2.4,2.4,0,0,0-.21.23,10.23,10.23,0,0,0-.87,1.33c-.56,1-1.1,2.12-1.64,3.23l-.14.29-.21.2c-.39.36-.73.65-1.1,1s-.73.61-1.1.9c-.74.6-1.51,1.16-2.28,1.71a43.72,43.72,0,0,1-4.86,3c-.42.23-.86.43-1.28.65s-.88.4-1.32.59-.93.36-1.39.54l-.7.22-.35.11-.34.1a25.89,25.89,0,0,0-2.49.76l-.53.22-.51.27a5.19,5.19,0,0,0-.5.31l-.49.33a24.05,24.05,0,0,0-3.65,3.63l-.86,1-.83,1.06-.83,1.07-.81,1.09c-1.09,1.45-2.13,2.95-3.18,4.44l-3.09,4.53-1.57,2.28c-.52.77-1.07,1.51-1.6,2.26-1.06,1.52-2.17,3-3.27,4.47-2.23,2.94-4.51,5.83-6.78,8.71s-4.49,5.76-6.53,8.75a87.79,87.79,0,0,0-5.6,9.32q-2.52,4.83-4.64,9.88c-.69,1.68-1.36,3.37-1.92,5.08-.29.85-.54,1.71-.75,2.56a12.08,12.08,0,0,0-.37,2.53c-.07,7.35-.46,14.71-1,22l-.81,11c-.26,3.66-.52,7.32-.71,11-.1,1.83-.17,3.66-.22,5.48s0,3.66,0,5.48.14,3.64.35,5.44a31.31,31.31,0,0,0,1,5.29l-.41-.38,16.86,3.82c1.41.32,2.81.62,4.22,1l4.2,1c2.8.66,5.6,1.3,8.41,1.94q16.86,3.78,33.85,6.88c11.32,2,22.69,3.88,34.1,5.32,5.7.72,11.41,1.35,17.13,1.83q4.29.38,8.58.61c2.87.15,5.73.28,8.58.32s5.72,0,8.56-.1,5.67-.33,8.46-.72a44.22,44.22,0,0,0,8.11-1.82l.24-.08.24-.1.47-.18,1-.39,2-.85,4-1.66c5.35-2.18,10.69-4.29,15.91-6.6a148.05,148.05,0,0,0,15.23-7.74,120.81,120.81,0,0,0,26.48-21.33,164.31,164.31,0,0,0,11.09-13c.45-.56.87-1.13,1.3-1.71l1.28-1.72.64-.85c.2-.28.4-.56.59-.85.39-.58.77-1.16,1.12-1.75A25.28,25.28,0,0,0,370,306a8.23,8.23,0,0,0,.49-1.76,3,3,0,0,0,0-.71.78.78,0,0,0-.11-.32l-.8-1.14,1-.82c2.25-1.76,4.49-3.61,6.69-5.46s4.39-3.74,6.55-5.65c4.3-3.84,8.52-7.78,12.56-11.89,2-2.05,4-4.14,5.92-6.28s3.77-4.34,5.53-6.6a75.14,75.14,0,0,0,4.92-7c.37-.61.71-1.24,1.07-1.85.18-.31.34-.62.5-.94l.49-.94a28.78,28.78,0,0,0,1.64-3.9l.19-.56h.56l-.75.55a19.74,19.74,0,0,0,.62-2.25l.08-.35.28-.15,2.16-1.12,2.15-1.09c1.43-.73,2.87-1.44,4.31-2.15q4.32-2.12,8.71-4.09c2.93-1.32,5.88-2.58,8.88-3.73l1.12-.43L446,235c.76-.26,1.51-.54,2.29-.77s1.53-.49,2.32-.67l1.17-.29Z" transform="translate(-69.28 -44.64)"/><path d="M371.31,301.59a2.58,2.58,0,0,1,.49,1.68,7.19,7.19,0,0,1-.28,1.73,17.85,17.85,0,0,1-1.28,3.25c-.52,1-1.1,2-1.72,3-.31.49-.62,1-1,1.45l-1,1.4-1,1.41-.51.7-.52.69-2.1,2.75c-.72.9-1.45,1.79-2.18,2.69l-.55.67-.57.65L358,325c-.75.87-1.55,1.71-2.34,2.55l-1.18,1.27-1.21,1.23L352,331.29l-1.24,1.21c-.83.8-1.64,1.62-2.49,2.39-3.35,3.17-6.8,6.24-10.41,9.12a114,114,0,0,1-23.61,14.4c-8.4,3.87-17.1,6.92-25.69,10.24a0,0,0,1,1,0-.09c8.35-3.9,17-7.17,25.28-11.1,1-.48,2.07-1,3.11-1.48s2.05-1,3.07-1.55l1.53-.79,1.51-.82c1-.53,2-1.12,3-1.69a130,130,0,0,0,11.5-7.55l1.39-1,1.35-1.06c.45-.36.91-.7,1.35-1.07l1.32-1.11c.9-.73,1.74-1.51,2.6-2.28s1.67-1.57,2.51-2.36,1.62-1.63,2.42-2.46c.39-.42.8-.82,1.18-1.25l1.16-1.28L354,328.4l1.12-1.3,1.13-1.31c.38-.43.72-.89,1.1-1.33l1.1-1.32c.37-.44.74-.88,1.1-1.33l2.17-2.67c1.41-1.81,2.84-3.61,4.21-5.46l1-1.37c.34-.46.67-.92,1-1.39.64-.95,1.25-1.92,1.81-2.92a20,20,0,0,0,1.42-3.09,7.29,7.29,0,0,0,.37-1.65,3.92,3.92,0,0,0,0-.84,2,2,0,0,0-.31-.77h0a0,0,0,0,1,0-.07A.06.06,0,0,1,371.31,301.59Z" transform="translate(-69.28 -44.64)"/><path class="cls-3" d="M417.27,251a31.17,31.17,0,0,1-1.44,3.64c-9.52,20.45-44.32,47.76-44.32,47.76,1.72,2.21-2.26,8.49-3.92,10.79-28.46,39.5-53.85,45.56-78.76,56.19C259.16,382,146,353.64,146,353.64l-19.16-4.34-.35-.45S287.36,355.63,417.27,251Z" transform="translate(-69.28 -44.64)"/><path class="cls-2" d="M417.27,251a28,28,0,0,1-1.58,4l-.47,1c-.15.32-.31.65-.49,1-.35.63-.68,1.28-1.05,1.9a74.17,74.17,0,0,1-4.81,7.26q-2.6,3.5-5.44,6.8t-5.83,6.46q-6,6.33-12.41,12.21-3.19,3-6.48,5.82c-2.2,1.9-4.4,3.78-6.67,5.62l.15-1.2a2.86,2.86,0,0,1,.57,1.4,4.71,4.71,0,0,1,0,1.3,10.3,10.3,0,0,1-.58,2.28,26.5,26.5,0,0,1-1.94,4c-.36.63-.75,1.26-1.15,1.87-.2.31-.4.61-.62.92l-.63.87c-.85,1.16-1.68,2.34-2.57,3.48s-1.75,2.29-2.66,3.4L361.24,323c-.45.56-.9,1.12-1.38,1.67l-1.4,1.64-.7.82L357,328c-1,1.07-1.91,2.15-2.91,3.19A123.08,123.08,0,0,1,327.32,353q-3.72,2.21-7.58,4.18c-2.57,1.31-5.18,2.53-7.81,3.71-5.26,2.35-10.61,4.44-15.91,6.59l-4,1.62-2,.83c-.33.14-.65.28-1,.41l-1,.41c-.35.14-.7.24-1.05.36l-1.06.33-1.07.29-.53.14-.54.11-1.07.24c-.36.08-.72.13-1.08.2l-1.07.19-1.08.16c-2.88.41-5.77.63-8.66.75s-5.77.13-8.65.07c-5.76-.12-11.51-.5-17.23-1-2.86-.26-5.72-.57-8.57-.89s-5.7-.69-8.55-1.07c-11.38-1.54-22.69-3.45-34-5.58s-22.5-4.47-33.69-7c-2.8-.64-5.59-1.28-8.38-1.94l-4.19-1c-.7-.16-1.4-.35-2.08-.5l-2.1-.48-16.75-3.79-.34-.08-.22-.27-.35-.45-1.3-1.66,2.11.07c3.21.11,6.47.1,9.71.06s6.5-.13,9.74-.26,6.49-.3,9.73-.51,6.49-.44,9.72-.72c12.95-1.09,25.86-2.72,38.69-4.81s25.58-4.67,38.21-7.74c6.31-1.54,12.6-3.18,18.85-5s12.47-3.67,18.65-5.68,12.31-4.18,18.4-6.44,12.12-4.68,18.12-7.19l4.47-1.93,2.24-1,2.22-1c1.48-.67,3-1.33,4.44-2l4.42-2.07c1.47-.67,2.92-1.4,4.38-2.12s2.92-1.42,4.37-2.16,2.89-1.47,4.35-2.2,2.89-1.48,4.34-2.22c11.56-5.92,22.81-12.47,33.79-19.44,1.38-.87,2.73-1.77,4.09-2.66s2.73-1.77,4.07-2.69l4-2.75,1-.69,1-.7,2-1.42,2-1.41c.66-.47,1.33-.93,2-1.42l3.93-2.9c.66-.48,1.31-1,2-1.46l2-1.49C414.73,252.93,416,252,417.27,251Zm0,0c-10,8.28-20.49,16.11-31.31,23.39-2.72,1.79-5.41,3.63-8.18,5.36-1.38.87-2.75,1.75-4.13,2.61l-4.18,2.55c-1.39.86-2.79,1.68-4.2,2.51s-2.81,1.66-4.23,2.47c-2.84,1.59-5.67,3.23-8.55,4.76l-2.15,1.17c-.72.39-1.43.78-2.16,1.15l-4.36,2.23q-1.08.55-2.19,1.08l-2.2,1.07-2.2,1.07L335,303.43l-4.44,2.07c-1.48.69-3,1.35-4.46,2l-2.23,1-2.25,1-4.49,1.94q-9,3.78-18.19,7.22t-18.48,6.46q-9.32,3-18.72,5.71c-6.28,1.79-12.59,3.43-18.93,5q-19,4.63-38.36,7.78t-38.83,4.83c-3.25.28-6.51.52-9.76.72s-6.52.38-9.78.51-6.52.22-9.79.27c-1.63,0-3.27,0-4.9,0s-3.26,0-4.92-.09l.81-1.58.36.45-.56-.35,16.78,3.79,2.09.48c.71.16,1.4.34,2.1.51l4.17,1c2.78.65,5.57,1.3,8.36,1.93q16.76,3.79,33.62,7c11.25,2.11,22.54,4,33.88,5.55,2.83.38,5.67.74,8.5,1.07s5.69.63,8.53.88c5.69.52,11.39.9,17.09,1,2.84.05,5.69,0,8.53-.08a82,82,0,0,0,8.46-.73l1.05-.15,1-.18,1-.19,1-.23.51-.11.51-.14,1-.26,1-.32c.33-.1.66-.2,1-.33l1-.37,1-.42,2-.83,4-1.63c5.32-2.15,10.65-4.24,15.85-6.57,2.6-1.16,5.18-2.37,7.72-3.66s5-2.67,7.47-4.12a120.81,120.81,0,0,0,26.37-21.44c1-1,1.92-2.1,2.88-3.16l.71-.79.69-.81,1.39-1.63q.69-.81,1.35-1.65l1.34-1.66c.46-.55.88-1.12,1.32-1.69l1.3-1.69c.45-.56.86-1.14,1.29-1.71l1.28-1.71.63-.86c.2-.28.41-.56.6-.85.4-.58.78-1.16,1.14-1.76a24.09,24.09,0,0,0,1.88-3.68,8.42,8.42,0,0,0,.53-1.86,3.43,3.43,0,0,0,0-.84,1.18,1.18,0,0,0-.2-.59l-.51-.69.66-.51c2.27-1.76,4.51-3.59,6.73-5.43s4.41-3.74,6.58-5.65c4.33-3.83,8.57-7.76,12.64-11.86q3-3.08,6-6.29t5.59-6.63a74.51,74.51,0,0,0,5-7.08c.38-.61.73-1.25,1.09-1.87.19-.31.35-.63.52-1l.5-1A29.78,29.78,0,0,0,417.27,251Z" transform="translate(-69.28 -44.64)"/><path class="cls-3" d="M393.84,138C393.84,150.85,379,162,370,162s-18.4-8.72-18.4-21.59,15.84-27.24,24.78-27.24S393.84,125.1,393.84,138Z" transform="translate(-69.28 -44.64)"/><path class="cls-2" d="M370,162.88c-9.3,0-19.26-9-19.26-22.45,0-6.07,3.39-13,9.28-19.05,5.37-5.5,11.79-9,16.36-9s9.21,2.89,12.77,7.93A31.38,31.38,0,0,1,394.7,138c0,6-3.22,12.38-8.83,17.49C380.93,160,374.71,162.88,370,162.88Zm6.38-48.83c-4.13,0-10.07,3.35-15.13,8.53-5.59,5.72-8.79,12.23-8.79,17.85,0,12.4,9.07,20.73,17.54,20.73,4.27,0,10-2.74,14.68-7C390,149.4,393,143.49,393,138,393,125.68,384.93,114.05,376.42,114.05Z" transform="translate(-69.28 -44.64)"/><path class="cls-3" d="M364.89,164c0-.49-12.27-13.74-8.34-25.27s6.38-20.86,22.82-25.52c0,0,2-1.47-2.21-2.21s-26.25,5.4-33.12,19.39S336.18,148,336.18,148a18.68,18.68,0,0,0,.74,10.06" transform="translate(-69.28 -44.64)"/><path class="cls-2" d="M364.76,164s0,0,0,0v0l0,0-.07-.1-.14-.19-.31-.4-.62-.78c-.41-.53-.81-1.06-1.21-1.6-.79-1.07-1.55-2.18-2.26-3.31a36.43,36.43,0,0,1-3.54-7.23,20.77,20.77,0,0,1-1.27-8,15.89,15.89,0,0,1,.26-2.06,16.64,16.64,0,0,1,.53-2l1.23-3.81a58.53,58.53,0,0,1,2.94-7.52,26.34,26.34,0,0,1,4.63-6.77,24.41,24.41,0,0,1,3.11-2.73,28.86,28.86,0,0,1,3.5-2.19,40.6,40.6,0,0,1,7.59-3l-.34.16h0l0,0,0,0,0,0a.15.15,0,0,0,0,.08.55.55,0,0,0,0,.18c0,.11.06.09,0,0l-.3-.16a4.91,4.91,0,0,0-.91-.27l-.51-.1-.13,0h-.11l-.2,0a11,11,0,0,0-2.08.18c-.72.1-1.44.26-2.17.43a50.11,50.11,0,0,0-8.49,2.92,55.34,55.34,0,0,0-7.88,4.25c-.62.42-1.24.82-1.83,1.27s-1.18.89-1.77,1.34-1.13.95-1.66,1.45-1.06,1-1.58,1.54l-.74.81c-.25.26-.46.56-.7.84l-.35.42-.32.44-.32.43-.16.22-.15.23-.59.91-.53.95c-.18.3-.35.66-.52,1l-.53,1c-.68,1.37-1.39,2.72-2.08,4.09s-1.35,2.74-2,4.11-1.33,2.75-2,4.13c-.32.69-.63,1.39-.92,2.08-.14.35-.29.7-.41,1l0,.1,0,.11-.07.26c0,.18-.07.36-.11.55a18.46,18.46,0,0,0,.41,8.91h0a.14.14,0,0,1-.09.17.15.15,0,0,1-.17-.08c-.15-.36-.32-.71-.45-1.07A11.11,11.11,0,0,1,336,156l-.16-.57-.13-.57c-.09-.38-.14-.77-.21-1.16a20.13,20.13,0,0,1-.1-4.72c0-.2,0-.39.07-.59l.05-.3,0-.17,0-.18c.11-.4.22-.76.34-1.14.25-.74.5-1.47.77-2.2.54-1.45,1.11-2.89,1.69-4.31.29-.72.59-1.43.9-2.14l.92-2.11.94-2.11c.31-.71.63-1.41.95-2.1l.49-1.05c.17-.35.31-.69.51-1.06l.56-1.08.62-1a26.14,26.14,0,0,1,2.93-3.84c.55-.58,1.09-1.17,1.68-1.71s1.2-1.06,1.8-1.58a41.38,41.38,0,0,1,3.86-2.78,51.82,51.82,0,0,1,8.4-4.27c1.46-.58,2.93-1.11,4.43-1.58a47,47,0,0,1,4.56-1.2c.77-.16,1.55-.31,2.35-.41a13.61,13.61,0,0,1,2.51-.13l.37,0,.18,0a.9.9,0,0,1,.16,0c.2,0,.4.08.61.13a7,7,0,0,1,1.27.42,3.87,3.87,0,0,1,.71.42,2,2,0,0,1,.7.93,1.74,1.74,0,0,1,.08.75,1.81,1.81,0,0,1-.2.62,2,2,0,0,1-.3.43l-.16.17-.09.08-.12.1-.15.11-.19.06a38.9,38.9,0,0,0-7.29,2.71,26.37,26.37,0,0,0-3.32,2,22.45,22.45,0,0,0-2.95,2.47,24.93,24.93,0,0,0-4.5,6.27,61.53,61.53,0,0,0-3.05,7.27l-1.35,3.76a15.63,15.63,0,0,0-.55,1.85,13.4,13.4,0,0,0-.29,1.9,19.68,19.68,0,0,0,1,7.7,36.59,36.59,0,0,0,3.26,7.19c.66,1.15,1.38,2.27,2.12,3.37.38.54.76,1.09,1.15,1.62l.59.81.3.41.14.2a.75.75,0,0,1,.07.12.09.09,0,0,1,0,.06l0,0a.22.22,0,0,1,0,.08.13.13,0,1,1-.26,0Z" transform="translate(-69.28 -44.64)"/><path class="cls-3" d="M367.38,162.85c4.39-.94,26.13-6.62,26.52-26.88,0,0,9.26,8.87-5.21,22.12-10.76,9.85-16.37,10.48-18.54,10.15a3,3,0,0,1-1.09-.33" transform="translate(-69.28 -44.64)"/><path class="cls-2" d="M367.36,162.79a54.78,54.78,0,0,0,9.47-3.67,43,43,0,0,0,4.38-2.5c.35-.23.7-.46,1-.71s.69-.48,1-.74c.68-.5,1.32-1,1.95-1.59a26,26,0,0,0,6.25-7.8l.52-1.16c0-.09.09-.19.13-.29l.11-.3.21-.59.21-.6.17-.61.17-.61a4.31,4.31,0,0,0,.15-.62,25,25,0,0,0,.53-5v-.57l.4.4a11.48,11.48,0,0,1,2.92,5.4,12.41,12.41,0,0,1-.21,6.2l-.22.75c-.09.24-.19.48-.28.73l-.14.36a3.73,3.73,0,0,1-.16.35l-.32.71a23.12,23.12,0,0,1-1.58,2.67l-.44.63c-.14.21-.31.41-.46.61l-.47.61c-.16.2-.33.39-.5.59-.33.39-.67.78-1,1.14s-.7.75-1.07,1.09-.74.72-1.11,1.06l-1.15,1c-.75.67-1.55,1.3-2.33,1.94-.39.33-.8.62-1.21.93s-.8.62-1.22.9l-1.25.87-1.29.82c-.88.52-1.76,1-2.68,1.47-.22.12-.46.23-.69.33l-.7.31c-.23.11-.48.19-.72.28s-.47.19-.72.26a12.82,12.82,0,0,1-3,.63,7.21,7.21,0,0,1-1.54,0l-.38-.06a2.34,2.34,0,0,1-.38-.09A3,3,0,0,1,369,168a.07.07,0,0,1,0-.09.08.08,0,0,1,.08,0h0a3.57,3.57,0,0,0,1.42.29A7.28,7.28,0,0,0,372,168a6.14,6.14,0,0,0,.72-.15,5.75,5.75,0,0,0,.71-.2c.24-.08.47-.14.7-.23l.69-.26a29.93,29.93,0,0,0,5.19-2.88,76,76,0,0,0,9.19-7.6c.37-.34.7-.71,1-1.06.17-.18.35-.35.51-.54l.49-.55c.17-.18.34-.36.49-.55l.47-.57c.15-.2.31-.38.46-.58l.43-.6a21.29,21.29,0,0,0,1.54-2.48,16.6,16.6,0,0,0,1.12-2.69,13.75,13.75,0,0,0,.57-2.84,11.21,11.21,0,0,0-.12-2.89,11,11,0,0,0-.86-2.78,9.93,9.93,0,0,0-1.6-2.43l.41-.17-.09,1.28c0,.22,0,.43-.05.64l-.08.64c-.07.43-.1.86-.18,1.28l-.25,1.26q-.06.31-.15.63l-.16.62L393,143l-.21.61-.2.61-.1.31c0,.1-.07.2-.11.3l-.48,1.2a24.79,24.79,0,0,1-6,8.4c-.65.58-1.31,1.14-2,1.66-.34.27-.7.5-1.06.75s-.72.48-1.08.71a37.09,37.09,0,0,1-4.56,2.45,39.7,39.7,0,0,1-9.84,2.95s-.07,0-.07,0A.05.05,0,0,1,367.36,162.79Z" transform="translate(-69.28 -44.64)"/><path class="cls-3" d="M341.58,297s-25.76,39.26-28.7,39.26c0,0,2.45,2.7,1.47,4.41l-.44.76c.83.41,12,6,12,16.17,0,0,2.45,2.21,2.7,4.17,0,0,2.94-.73,9.08,1.48,0,0,11.28-2.7,13-2.46,0,0,5.26-3.09,7.85,1.23,3.31,5.52,10.18,8,10.18,8s11.66.37,9,8.22c-2.23,6.47-7.48,5.28-7.48,5.28s-.13,4.78-5.77,4c-2.44-.6-2.57-3.23-6.95-3.17a5.93,5.93,0,0,1-2-.33c-1.19-.41-4.58-.34-9,.81,0,0,2.83,6.54,5,6,3.56-.86,5.27,5,4.54,6.74a5.77,5.77,0,0,1-3.79,2.84,6.89,6.89,0,0,1-3.82-.14c-1.92-.6-2.66-1.62-2.87-2.63a4.27,4.27,0,0,0-3.31-3.35,31,31,0,0,1-12.47-5.79s-9.07.24-15.21,3.68c-3,1.68-6.64,1.24-9.87-.67a16.77,16.77,0,0,1-6.25-6.79c-.26-.52-.5-1.05-.72-1.6s-.41-1.15-.58-1.74c0,0-11.53-13.25-23.06-18.15,0,0-16.55-6.62-11.29-18.9a56.45,56.45,0,0,0,3-7.2c3.93-12.64,12.91-33,23-42.78" transform="translate(-69.28 -44.64)"/><path class="cls-2" d="M341.71,297.05q-3.16,5.2-6.45,10.36c-2.19,3.43-4.4,6.84-6.66,10.23-1.13,1.7-2.26,3.39-3.41,5.07s-2.32,3.35-3.51,5-2.39,3.31-3.65,4.94c-.63.81-1.28,1.62-2,2.41-.35.39-.7.79-1.1,1.18-.21.19-.42.39-.67.59a5.2,5.2,0,0,1-.46.31,2.82,2.82,0,0,1-.34.16,1.84,1.84,0,0,1-.6.12l.89-2,.29.33.25.32c.16.22.32.44.47.67a7.75,7.75,0,0,1,.78,1.55,3.53,3.53,0,0,1,.05,2.66,2.59,2.59,0,0,1-.14.29l-.06.1,0,.08-.37.65-.53-1.81a26.9,26.9,0,0,1,2.43,1.37c.79.49,1.54,1,2.27,1.58a25.21,25.21,0,0,1,4,3.84,20.15,20.15,0,0,1,1.67,2.3,18,18,0,0,1,1.3,2.55,15.06,15.06,0,0,1,1.15,5.68l-.48-1.07c.21.19.35.34.52.51l.48.51a12.27,12.27,0,0,1,.88,1.11,9,9,0,0,1,.78,1.29,5.54,5.54,0,0,1,.52,1.64l-1.79-1.22a4.3,4.3,0,0,1,.44-.08l.35,0c.23,0,.46,0,.67,0,.44,0,.87,0,1.3,0a22.23,22.23,0,0,1,2.47.33c.81.15,1.6.36,2.38.57l1.16.36,1.14.4-.82-.05c2.17-.51,4.34-1,6.52-1.41,1.09-.21,2.19-.42,3.3-.6.56-.09,1.12-.18,1.69-.25l.44-.05.22,0,.24,0,.48,0,.63,0-.84.17.2-.11.19-.09.35-.17c.24-.1.48-.2.73-.28a8.74,8.74,0,0,1,1.52-.41,6.89,6.89,0,0,1,3.33.16,5.53,5.53,0,0,1,2.76,2,4.15,4.15,0,0,1,.24.34l.2.33.34.54a10.78,10.78,0,0,0,.73,1,18.92,18.92,0,0,0,3.77,3.59,23.5,23.5,0,0,0,2.22,1.45c.39.22.78.44,1.17.64s.81.4,1.18.57h0l-.22,0c.56,0,1.07.06,1.6.12s1.05.15,1.57.26a14,14,0,0,1,3.09,1,10.19,10.19,0,0,1,1.46.84,6.77,6.77,0,0,1,1.28,1.18,5.41,5.41,0,0,1,.89,1.59c.05.14.09.29.13.44a1.42,1.42,0,0,1,.05.22l0,.22c0,.15.05.3.06.45V376a8.32,8.32,0,0,1-.75,3.3l-.15.38-.19.38c-.13.24-.25.49-.4.74l-.47.7a2.88,2.88,0,0,1-.27.34l-.28.32a6.77,6.77,0,0,1-2.91,1.9,7.55,7.55,0,0,1-.85.22,6.27,6.27,0,0,1-.86.09,2.52,2.52,0,0,1-1.71-.43h0l.58-.45a2.4,2.4,0,0,0-.09.57l0,.56a7.26,7.26,0,0,1-.14,1.19,3.32,3.32,0,0,1-.49,1.17,3.58,3.58,0,0,1-.95.91,4.22,4.22,0,0,1-1.18.55,4.42,4.42,0,0,1-.61.13l-.3,0-.31,0a13.06,13.06,0,0,1-2.28-.11h-.06l0,0-.37-.1-.18-.06-.18-.07-.35-.15-.32-.17a10,10,0,0,1-1.13-.77,6.12,6.12,0,0,0-1.74-1,6.63,6.63,0,0,0-1.79-.3h-.82l-.38,0a6.79,6.79,0,0,1-1.44-.27l-.35-.11-.08,0h0l-.06,0-.41-.08a10,10,0,0,0-1-.09c-.72,0-1.47,0-2.22,0-1.51.08-3,.27-4.58.45h0l.57-1.16a26.36,26.36,0,0,0,1.42,2.61,11.09,11.09,0,0,0,1.71,2.25,3.25,3.25,0,0,0,.46.36.77.77,0,0,0,.35.15h.17l.25-.05a3.46,3.46,0,0,1,1.05,0,3.64,3.64,0,0,1,1,.27,4.22,4.22,0,0,1,.88.51,5.54,5.54,0,0,1,1.28,1.38,8.9,8.9,0,0,1,1.33,3.24,8.11,8.11,0,0,1,.12.88,5.09,5.09,0,0,1,0,1,1.22,1.22,0,0,1,0,.26,1.41,1.41,0,0,1-.05.27,1.92,1.92,0,0,1-.08.3,2,2,0,0,1-.11.29,4.11,4.11,0,0,1-.53.87,7.06,7.06,0,0,1-2.91,2.22,7.86,7.86,0,0,1-3.55.61,8.83,8.83,0,0,1-1.78-.3,7.62,7.62,0,0,1-1.71-.68,5,5,0,0,1-1.56-1.36,4.07,4.07,0,0,1-.52-1,3.24,3.24,0,0,1-.16-.53l-.08-.3a3.2,3.2,0,0,0-.48-1A3.14,3.14,0,0,0,343,396a2.88,2.88,0,0,0-1-.39c-.51-.11-1-.22-1.57-.36a31.73,31.73,0,0,1-6-2.23c-1-.47-1.9-1-2.82-1.55s-1.8-1.17-2.66-1.81l.91.29-1.15.08-1.17.11c-.79.09-1.57.19-2.35.32a39.17,39.17,0,0,0-4.6,1,25.52,25.52,0,0,0-4.31,1.62l-1,.53c-.21.11-.43.23-.65.33l-.67.28a10.2,10.2,0,0,1-2.83.59,12.3,12.3,0,0,1-5.47-1,16.21,16.21,0,0,1-4.53-2.94,19,19,0,0,1-5.54-9l.35.66c-.72-.82-1.52-1.66-2.31-2.47-.39-.41-.79-.81-1.2-1.21s-.81-.8-1.22-1.2c-1.63-1.58-3.32-3.11-5.06-4.56l-.65-.55-.66-.53-1.33-1.06c-.9-.67-1.79-1.37-2.73-2a44.78,44.78,0,0,0-5.72-3.45l-1.48-.7c-.58-.25-1.14-.52-1.68-.8a33.26,33.26,0,0,1-3.15-1.85,23.12,23.12,0,0,1-5.47-5,14.63,14.63,0,0,1-1.95-3.32,11.62,11.62,0,0,1-.92-3.82,12.74,12.74,0,0,1,.37-3.9l.27-.92c.1-.31.23-.6.34-.9.22-.6.5-1.13.75-1.66.51-1.05,1-2.06,1.44-3.08.21-.52.42-1,.62-1.56l.28-.78.27-.81c.38-1.11.74-2.22,1.15-3.31.21-.55.4-1.1.61-1.65l.63-1.63c1.72-4.33,3.61-8.59,5.72-12.74a115.24,115.24,0,0,1,7-12.08c.65-1,1.29-1.93,2-2.86l1-1.4c.36-.46.73-.91,1.1-1.36a48.77,48.77,0,0,1,4.75-5.1.16.16,0,0,1,.23,0,.17.17,0,0,1,0,.21h0a64.5,64.5,0,0,0-8.13,11.11,125.59,125.59,0,0,0-6.34,12.25c-1.9,4.18-3.63,8.45-5.16,12.78l-.57,1.62c-.19.54-.36,1.09-.55,1.63-.37,1.09-.7,2.18-1,3.27l-.26.85c-.09.28-.18.57-.28.85-.19.57-.4,1.13-.62,1.69-.43,1.11-.92,2.2-1.4,3.25-.23.52-.47,1-.63,1.51-.08.25-.18.49-.25.74l-.2.74a10.1,10.1,0,0,0-.23,3,10.21,10.21,0,0,0,2.37,5.48,20.26,20.26,0,0,0,4.83,4.22,29.5,29.5,0,0,0,2.85,1.62c.49.24,1,.47,1.47.67l1.66.76c.57.25,1.08.55,1.61.83l.8.43.39.22.38.23,1.53.94c.51.31,1,.66,1.48,1,1,.65,1.93,1.38,2.89,2.08s1.87,1.45,2.76,2.22c1.81,1.51,3.55,3.09,5.24,4.73.43.4.84.82,1.25,1.23l1.24,1.26c.82.86,1.61,1.7,2.41,2.62l.25.28.11.37a16,16,0,0,0,4.49,7.49,13,13,0,0,0,3.6,2.4,9.13,9.13,0,0,0,4,.82,6.68,6.68,0,0,0,1.94-.38c.16-.05.31-.12.46-.18a3.61,3.61,0,0,0,.44-.22l1.16-.58a29.34,29.34,0,0,1,4.85-1.75,42.29,42.29,0,0,1,5-1c.83-.13,1.66-.22,2.49-.3l1.26-.11c.42,0,.83-.05,1.29-.06l.5,0,.41.31c.78.6,1.58,1.18,2.41,1.7s1.68,1,2.56,1.47a29.17,29.17,0,0,0,5.48,2.12c.48.14.95.24,1.44.36a5.54,5.54,0,0,1,1.86.78,5.77,5.77,0,0,1,1.45,1.38,5.85,5.85,0,0,1,.86,1.8l.06.24.05.21a.83.83,0,0,0,.06.21,1.18,1.18,0,0,0,.19.37,2.42,2.42,0,0,0,.74.66,5.66,5.66,0,0,0,1.14.48,6.11,6.11,0,0,0,1.26.25,5.54,5.54,0,0,0,2.48-.37,4.88,4.88,0,0,0,2-1.41,2.27,2.27,0,0,0,.28-.44l0-.07a.24.24,0,0,0,0-.07s0-.07,0-.1,0-.08,0-.13a4.7,4.7,0,0,0-.06-1.22,7.22,7.22,0,0,0-.93-2.47,2.57,2.57,0,0,0-1.67-1.32,1.79,1.79,0,0,0-.24,0h-.25l-.39.06-.19,0h-.17l-.34,0a2.88,2.88,0,0,1-1.06-.47,5,5,0,0,1-.73-.61,13.05,13.05,0,0,1-1.94-2.71,29.18,29.18,0,0,1-1.41-2.86l-.34-.81.91-.36h0a23.58,23.58,0,0,1,4.72-1.32,17.2,17.2,0,0,1,2.52-.27,10.14,10.14,0,0,1,1.34,0,6.06,6.06,0,0,1,.77.12l.61.17a5.54,5.54,0,0,0,.88.14h.49l.68,0a6.67,6.67,0,0,1,2.78.81,8.87,8.87,0,0,1,2.07,1.76,3.37,3.37,0,0,0,1.5,1.08l-.11,0,.45,0h.44a4.6,4.6,0,0,0,.84-.13,5.39,5.39,0,0,0,1.37-.59,5.23,5.23,0,0,0,.57-.39c.2-.14.42-.29.65-.48a2.64,2.64,0,0,0,.6-.68,1.77,1.77,0,0,0,.21-.41.84.84,0,0,0,0-.44l0-.1.62-.35h0a4.34,4.34,0,0,1,1.35-.32c.22,0,.44-.08.65-.12s.21-.07.32-.09.21-.06.31-.11a6,6,0,0,0,2.16-1.44l.22-.25a1.38,1.38,0,0,0,.22-.26l.39-.55c.12-.2.23-.41.34-.61l.17-.31.13-.32a6.42,6.42,0,0,0,.66-2.62v-.32c0-.11,0-.21,0-.31l0-.16a.83.83,0,0,0,0-.15,1.67,1.67,0,0,0-.08-.3,3.68,3.68,0,0,0-.59-1.08,5.37,5.37,0,0,0-.94-.9,8.31,8.31,0,0,0-1.19-.71,11.77,11.77,0,0,0-1.32-.54q-.69-.22-1.41-.39a14.08,14.08,0,0,0-1.44-.28c-.48-.07-1-.13-1.45-.16h-.11l-.11,0h0c-.48-.16-.91-.33-1.35-.51s-.87-.38-1.29-.59a24.29,24.29,0,0,1-2.49-1.39,19.37,19.37,0,0,1-4.4-3.75,12.91,12.91,0,0,1-.91-1.16l-.43-.61-.17-.25c0-.07-.1-.15-.16-.22a3.1,3.1,0,0,0-1.63-1.11,4.38,4.38,0,0,0-2.13,0,9.7,9.7,0,0,0-1.13.34l-.54.23-.27.13-.12.07-.1.06-.14.07-.7.09h-.2l-.34,0h-.18l-.19,0-.38.06c-.52.07-1.05.17-1.58.27-1.06.2-2.13.43-3.2.67s-2.15.47-3.22.72l-3.2.76-.4.09-.42-.14-1.06-.35-1.06-.32c-.71-.19-1.42-.37-2.13-.5a17.67,17.67,0,0,0-2.12-.29c-.35,0-.7,0-1,0a3.91,3.91,0,0,0-.49,0l-.22,0-.13,0-1.79-1.23a3,3,0,0,0-.25-.75,6.23,6.23,0,0,0-.52-.87,9.4,9.4,0,0,0-.69-.87c-.12-.14-.25-.28-.38-.41l-.38-.38-.47-.43v-.64a13.17,13.17,0,0,0-.21-2.35,13.83,13.83,0,0,0-.66-2.28,15,15,0,0,0-1.07-2.16,17.1,17.1,0,0,0-1.4-2,23.12,23.12,0,0,0-3.57-3.49c-.65-.52-1.34-1-2-1.47s-1.44-.9-2.14-1.27l-1.24-.63.7-1.18.36-.6.05-.07,0-.06s0,0,0,0l0-.1a1.57,1.57,0,0,0-.09-.78,5.3,5.3,0,0,0-.51-1.05c-.11-.17-.22-.35-.35-.52l-.19-.26L312,337l.9-2a.59.59,0,0,0-.24,0s0,0,0,0a.78.78,0,0,0,.18-.11,5.55,5.55,0,0,0,.48-.41c.34-.31.67-.66,1-1,.67-.73,1.31-1.49,1.95-2.26,1.28-1.55,2.53-3.15,3.76-4.76s2.44-3.23,3.64-4.86,2.41-3.27,3.6-4.91q3.57-4.93,7.12-9.9l7.08-9.94a.16.16,0,1,1,.26.18Z" transform="translate(-69.28 -44.64)"/><path class="cls-3" d="M187,345.29c-15.21-2.45-36.07,6.87-37.54,9.57s-11.78,11.29-17.42,14.23-1.23,9.08-1.23,9.08,1.48.49,7.37,6.87a27,27,0,0,0,13,7.85c20.61,1,23.31,4.17,24,4.66,11.76,7.84,39.93,25.84,47.6,29.45-.58.73-.05,3.32.49,4.17,1.72,2.7,2.78,2.45,5.15,2.45s4.67-2.78,4.67-5.15-2.3-4.91-4.67-4.91c-.06,0,.07.74,0,.74,2.75-6.05,3.44-8.1,11.41-7.48.45,1.9,1.53,4,3.56,4,2.37,0,4.91-2.65,4.91-5s-.74-4.54-4.3-4.29a6.79,6.79,0,0,0-1,.12c-.17-2.46-.49-6.81.65-8.71,1.9-3.15,6.05-3.33,8.5-4.8.47,1.64.75,4.07,2.54,4.07,2.17,0,5.15-3,5.15-5.16a3.93,3.93,0,0,0-6.12-3.25c-7.13-6.07-4.36-11.83-3.29-15.07.54,1,1.83,2.62,3,2.62,1.76,0,2.94-2.41,2.94-4.17a3.18,3.18,0,0,0-3.18-3.19H253a51.77,51.77,0,0,0,7.65-3.7c4.41-2.64,7.44-5.6,7.34-8.09-.25-5.64-18.16-42.69-35.09-60.6a33.63,33.63,0,0,0-35.54-9.31M251,375h-.66l1.08-.38A3.7,3.7,0,0,0,251,375Z" transform="translate(-69.28 -44.64)"/><path class="cls-2" d="M227.62,435c-2.16,0-3.64-.25-5.44-3.08a8.1,8.1,0,0,1-.93-4.17c-8.81-4.49-35-21.22-46.77-29l-.26-.2c-3.57-2.76-14.53-3.83-23.1-4.24H151l-.1,0A28.2,28.2,0,0,1,137.19,386c-4.77-5.18-6.51-6.32-6.84-6.52l-.5-.08-.12-.4c-.1-.14-2.54-3.58-1.73-7a6.17,6.17,0,0,1,3.43-4.1c5.77-3,15.66-11.48,16.86-13.68s8.12-5.33,14.38-7.36c5.29-1.71,15.5-4.36,24.56-2.9a1.35,1.35,0,0,1-.43,2.67c-15.07-2.43-34.85,6.89-36.15,8.89-1.69,3.09-12.27,11.8-18,14.77a3.58,3.58,0,0,0-2.06,2.33c-.42,1.78.72,3.84,1.15,4.53.93.56,3,2.21,7.41,7a25.85,25.85,0,0,0,12.19,7.42c19.53.94,23.28,3.85,24.51,4.8l.1.08c12.17,8.11,39.94,25.82,47.43,29.35l1.53.72-1,1.25a5.69,5.69,0,0,0,.51,2.69c1.18,1.85,1.57,1.85,3.46,1.83h.55c1.52,0,3.32-2.06,3.32-3.8a4,4,0,0,0-2.27-3.31l0,0-.38.43-2.77.11.79-1.73a1.6,1.6,0,0,1,.35-1.35l.4-.43h.06c2.33-5.08,3.88-7.37,12.05-6.73l1,.08.22.95c.12.5.79,3,2.25,3a4.23,4.23,0,0,0,3.56-3.68,3.3,3.3,0,0,0-.68-2.46,2.84,2.84,0,0,0-2.17-.48h0a4.81,4.81,0,0,0-.76.09l-1.55.37-.12-1.64c-.26-3.65-.41-7.38.84-9.45,1.52-2.52,4.19-3.44,6.34-4.18a15.22,15.22,0,0,0,2.62-1.09l1.51-.9.48,1.69c.08.27.15.55.23.85.22.89.56,2.24,1,2.24,1.42,0,3.8-2.38,3.8-3.81a2.58,2.58,0,0,0-4-2.13l-.85.57-.78-.66c-7.29-6.21-5.12-12.43-3.95-15.77l.26-.76.65-2-8.06.06,8.08-2.69,1-.37.94-.34.65-.25a51.07,51.07,0,0,0,7.45-3.61c5-3,6.74-5.51,6.68-6.87-.11-2.41-4.39-12.7-11.13-25.11-4.59-8.47-13.77-24.23-23.59-34.62-13.6-14.39-29.56-10.5-34.13-9a1.35,1.35,0,1,1-.86-2.56,36.56,36.56,0,0,1,15.17-1.55,34.77,34.77,0,0,1,21.78,11.21c10,10.62,19.35,26.6,24,35.19,6.49,12,11.3,23,11.44,26.29.16,3.64-4.26,7.07-8,9.3a51,51,0,0,1-4.85,2.53,4.53,4.53,0,0,1,1.31,3.19c0,2.26-1.52,5.52-4.29,5.52a3.9,3.9,0,0,1-2.55-1.18c-.89,3-1.28,6.63,3,10.65a5.19,5.19,0,0,1,2-.39,5.28,5.28,0,0,1,5.28,5.27c0,2.92-3.59,6.51-6.5,6.51-2.18,0-3-1.94-3.44-3.5-.5.2-1,.38-1.54.56-2,.69-3.9,1.34-4.91,3-.74,1.23-.67,4.31-.54,6.53a5.13,5.13,0,0,1,3.86,1.22,5.7,5.7,0,0,1,1.54,4.43c0,3.16-3.16,6.38-6.26,6.38-2.05,0-3.73-1.51-4.6-4.1-5.27-.31-6.32.68-8.17,4.62a6.75,6.75,0,0,1,3.82,5.74c0,2.93-2.78,6.5-6,6.5h-.85Zm23.06-58.63,1,1.74c.61,1.1,1.53,1.92,1.85,1.93.73,0,1.6-1.53,1.6-2.82a1.85,1.85,0,0,0-1.84-1.84h-.11l-.56,0-.41.31a2,2,0,0,0-.26.23l-.4.41Z" transform="translate(-69.28 -44.64)"/><path class="cls-2" d="M250.35,375.11A106.35,106.35,0,0,1,233,379a136.13,136.13,0,0,1-17.82,1.26c-1.5,0-3,0-4.48,0s-3,0-4.47-.09a85.84,85.84,0,0,1-8.92-.76c-3-.41-5.89-.93-8.8-1.59-.73-.17-1.45-.33-2.18-.52l-2.16-.57c-1.44-.42-2.86-.85-4.27-1.38a.15.15,0,0,1-.08-.18.14.14,0,0,1,.14-.08h0l8.84.85c2.94.28,5.87.55,8.8.79s5.86.51,8.78.78,5.87.49,8.81.58c1.47,0,2.94.06,4.41.08s2.94,0,4.42-.06,2.94-.1,4.41-.15l2.2-.15c.74,0,1.47-.1,2.21-.17,2.93-.23,5.86-.6,8.78-1l2.18-.37c.73-.13,1.45-.29,2.17-.43l1.09-.21,1.08-.24,2.16-.5h0a.13.13,0,0,1,.16.1A.15.15,0,0,1,250.35,375.11Z" transform="translate(-69.28 -44.64)"/><path class="cls-2" d="M191.4,385.56a.21.21,0,0,1,.17-.06l.18,0,.33.14c.21.11.41.23.61.36.39.26.76.53,1.14.81.74.57,1.44,1.17,2.15,1.77,1.4,1.22,2.76,2.48,4.09,3.76,2.66,2.56,5.23,5.2,7.76,7.87s5,5.37,7.51,8.08,4.93,5.44,7.49,8.12a45.34,45.34,0,0,1-4.51-3.26c-1.45-1.17-2.84-2.39-4.21-3.63-2.73-2.5-5.34-5.12-7.88-7.79s-5-5.42-7.41-8.2l-3.6-4.19c-.59-.7-1.2-1.39-1.81-2.08-.3-.34-.61-.68-.93-1l-.5-.47a2.69,2.69,0,0,0-.27-.2C191.62,385.57,191.51,385.49,191.4,385.56Z" transform="translate(-69.28 -44.64)"/><path class="cls-2" d="M243.32,393.36c-2,0-3.91-.17-5.85-.37l-1.46-.16-1.46-.19-1.45-.2-1.45-.23L230.2,392l-1.44-.27-1.44-.27-1.44-.31-1.43-.31c-.48-.11-1-.21-1.43-.34l-2.85-.71c-.95-.24-1.89-.51-2.84-.76l-1.42-.39-1.41-.42c-.94-.28-1.87-.57-2.8-.89l-1.38-.52-1.36-.54-1.36-.56c-.46-.19-.9-.4-1.34-.61-.89-.42-1.78-.83-2.66-1.27s-1.73-.92-2.58-1.4-1.7-1-2.53-1.51a.1.1,0,0,1,0-.14.11.11,0,0,1,.11,0h0c1,.26,1.88.57,2.81.87l1.38.48.69.24.69.23c.93.29,1.84.62,2.76.93.46.16.91.34,1.37.49l1.38.45,1.37.48,1.36.5c.91.31,1.83.63,2.73,1l1.36.51,1.37.47c.92.31,1.84.63,2.76.92l2.79.83,1.39.4,1.41.37,1.4.38,1.41.35,1.42.35,1.42.31a92.55,92.55,0,0,0,11.48,1.91h0a.1.1,0,0,1,.08.11A.09.09,0,0,1,243.32,393.36Z" transform="translate(-69.28 -44.64)"/><path class="cls-4" d="M194.65,377.78" transform="translate(-69.28 -44.64)"/><path class="cls-4" d="M243.69,379.4" transform="translate(-69.28 -44.64)"/><path class="cls-2" d="M346.24,372.65l.55,0,.52,0,1,.08,2.06.14c1.37.08,2.76.16,4.1.14l.49,0,.23,0,.26,0a9.63,9.63,0,0,1,1.09-.08,6.17,6.17,0,0,1,2.21.39,8.47,8.47,0,0,1,1.93,1.08q.44.33.84.69l.75.7a4.74,4.74,0,0,0,1.6.92,6,6,0,0,0,1.86.29,4.53,4.53,0,0,1,2.24.65,6,6,0,0,1,1.72,1.49,5.76,5.76,0,0,1,1,2,5.33,5.33,0,0,1,.19,2.28,2.87,2.87,0,0,1-.11.57,3.8,3.8,0,0,1-.16.55l-.22.52a5.39,5.39,0,0,1-.25.48c-.09.16-.17.31-.28.48s-.11.16-.2.27l-.11.11-.06,0,0,0-.06,0a.46.46,0,0,1-.2,0,.47.47,0,0,1-.31-.11.37.37,0,0,1-.09-.09.35.35,0,0,1-.05-.08.26.26,0,0,1,0-.1,1,1,0,0,1,0-.12v-.13c0-.13,0-.22.06-.32s.05-.18.08-.26l.09-.26,0-.13,0-.06v0h0c-.53-.35.7.54.71.2a.37.37,0,0,1-.46.24.37.37,0,0,1-.24-.46c0-.35,1.24.56.71.2h0v.12l0,.12,0,.25a2.28,2.28,0,0,0,0,.43h0a.15.15,0,0,0,0-.06.13.13,0,0,0,0-.07.17.17,0,0,0,0-.07l-.08-.08a.43.43,0,0,0-.27-.1.53.53,0,0,0-.18,0l0,0h0l0,0h0s0-.1.08-.16.14-.29.2-.44.14-.32.19-.46l.15-.44a2.5,2.5,0,0,0,.12-.45,2.36,2.36,0,0,0,.08-.45,4.44,4.44,0,0,0-.14-1.81,4.73,4.73,0,0,0-.84-1.64,5,5,0,0,0-1.38-1.21,3.48,3.48,0,0,0-1.69-.52,7,7,0,0,1-2.2-.35,5.83,5.83,0,0,1-2-1.15l-.75-.72c-.25-.22-.49-.44-.76-.64a7.44,7.44,0,0,0-1.65-1,5.24,5.24,0,0,0-1.84-.36c-.32,0-.64,0-1,.06l-.25,0-.29,0a5.06,5.06,0,0,1-.55,0c-1.42,0-2.79-.13-4.17-.25l-2.07-.2-1-.11-.51-.05-.49,0h0a.36.36,0,0,1-.34-.39A.37.37,0,0,1,346.24,372.65Z" transform="translate(-69.28 -44.64)"/><path class="cls-2" d="M348.21,387.49a16.83,16.83,0,0,0-2-1.83,10.77,10.77,0,0,0-1.08-.73,11.44,11.44,0,0,0-1.15-.61,19.51,19.51,0,0,0-2.45-1c-.85-.27-1.73-.52-2.65-.76a7.22,7.22,0,0,1,2.85-.18,8.59,8.59,0,0,1,2.78.8l.65.35a5,5,0,0,1,.61.41,6.36,6.36,0,0,1,1.09,1A5.81,5.81,0,0,1,348.21,387.49Z" transform="translate(-69.28 -44.64)"/><path class="cls-2" d="M292.27,333a42.57,42.57,0,0,1,5.82,1,54.14,54.14,0,0,1,5.69,1.62l1.39.5c.46.18.92.35,1.38.55.91.38,1.81.79,2.69,1.26a23.74,23.74,0,0,1,2.55,1.55,11,11,0,0,1,2.19,2,25.27,25.27,0,0,0-5.15-2.69c-1.79-.73-3.62-1.39-5.45-2s-3.69-1.23-5.54-1.85S294.12,333.7,292.27,333Z" transform="translate(-69.28 -44.64)"/><path class="cls-2" d="M296.44,331.31a19.07,19.07,0,0,1,4.52-.6,20.7,20.7,0,0,1,4.57.38,15.85,15.85,0,0,1,2.24.63,12.11,12.11,0,0,1,2.12,1,6.92,6.92,0,0,1,3,3.49,9.15,9.15,0,0,0-3.45-2.64,16,16,0,0,0-2-.76c-.69-.2-1.4-.38-2.11-.53-1.43-.28-2.89-.48-4.37-.62S298,331.42,296.44,331.31Z" transform="translate(-69.28 -44.64)"/><path class="cls-2" d="M328.58,361.73c-.64.94-1.32,1.82-2,2.68s-1.37,1.72-2.07,2.57l-2.09,2.53c-.72.84-1.4,1.7-2.18,2.53a13.58,13.58,0,0,1,1.39-3.08,20.43,20.43,0,0,1,1.94-2.76,23.15,23.15,0,0,1,2.31-2.44A15.89,15.89,0,0,1,328.58,361.73Z" transform="translate(-69.28 -44.64)"/><path class="cls-2" d="M312.14,365.17a22.84,22.84,0,0,1,2.94-2.63,31,31,0,0,1,3.26-2.2,21.9,21.9,0,0,1,3.59-1.71,10.54,10.54,0,0,1,1.95-.51,5.71,5.71,0,0,1,1-.06,2.52,2.52,0,0,1,1,.24,4.49,4.49,0,0,0-1.85.4,18.06,18.06,0,0,0-1.72.82c-1.13.58-2.24,1.23-3.35,1.88s-2.22,1.3-3.35,1.94S313.34,364.6,312.14,365.17Z" transform="translate(-69.28 -44.64)"/><path class="cls-2" d="M352.38,305.25c.84-.23,1.7-.43,2.56-.59l1.29-.22a11.23,11.23,0,0,1,1.3-.14c.87-.06,1.76,0,2.62-.13a16.29,16.29,0,0,0,2.57-.53l1.26-.35,1.27-.31c.85-.2,1.69-.41,2.54-.59l2.54-.52a20.16,20.16,0,0,0,2.51-.66h0a0,0,0,0,1,.06,0,.07.07,0,0,1,0,.06,5.35,5.35,0,0,1-1.12.75,12.3,12.3,0,0,1-1.22.56,21.87,21.87,0,0,1-2.53.8c-.85.21-1.72.35-2.59.48-.43.07-.87.13-1.31.18s-.87.07-1.31.1a22.67,22.67,0,0,0-2.61.31c-.86.16-1.7.45-2.56.63-.43.09-.86.15-1.3.2s-.87.08-1.31.11-.88,0-1.32,0a8.6,8.6,0,0,1-1.33-.1,0,0,0,0,1,0-.06,0,0,0,0,1,0,0Z" transform="translate(-69.28 -44.64)"/><path class="cls-2" d="M372,260.05c1.94-.48,3.89-.88,5.83-1.28s3.9-.77,5.86-1.1,3.94-.55,5.89-.94c1-.2,1.95-.42,2.91-.65s1.92-.53,2.88-.8,1.9-.58,2.85-.86,1.91-.54,2.86-.84l2.85-.87c.94-.31,1.88-.61,2.83-.9,3.77-1.2,7.52-2.46,11.23-3.93h0a0,0,0,0,1,.06,0,.06.06,0,0,1,0,.07l-1.3.73-1.32.72c-.44.25-.9.44-1.35.65l-1.37.62c-.46.19-.91.42-1.38.59l-1.4.54c-.93.36-1.87.71-2.82,1l-2.86.89-2.89.77c-1,.27-1.94.49-2.91.71s-1.95.43-2.93.61-2,.38-2.93.59-1.95.41-2.92.64l-1.45.36-1.45.37c-1,.26-1.93.5-2.9.72s-2,.42-2.93.58l-1.47.25-1.48.22c-2,.27-4,.51-6,.6a0,0,0,0,1-.05,0A0,0,0,0,1,372,260.05Z" transform="translate(-69.28 -44.64)"/><path class="cls-2" d="M445.73,219.55c0,.81-.41,2-1.22,2-.12,0-.84-.38-.94-.4-.56-.13-.9-.45-.9-1.68,0-.1.53-1.6,1.35-1.6A1.93,1.93,0,0,1,445.73,219.55Z" transform="translate(-69.28 -44.64)"/><path class="cls-2" d="M444.51,221.88c-.14,0-.27,0-.74-.28l-.31-.14c-.82-.18-1.16-.77-1.16-2,0-.21.59-2,1.72-2a2.29,2.29,0,0,1,2.08,2.08C446.1,220.52,445.61,221.88,444.51,221.88Zm.06-.73ZM443,219.46c0,1.15.33,1.23.62,1.29a2.72,2.72,0,0,1,.43.19l.46.21c.51-.05.83-1,.83-1.6A1.59,1.59,0,0,0,444,218.2C443.59,218.2,443.12,219.16,443,219.46Z" transform="translate(-69.28 -44.64)"/><path class="cls-2" d="M301.53,193.69c-1.14-2.86-2.19-5.76-3.17-8.68s-1.87-5.87-2.65-8.86c-.4-1.49-.74-3-1.06-4.51s-.58-3-.78-4.57a38,38,0,0,1-.36-4.65,17.87,17.87,0,0,1,.51-4.7l.44-1.64.47,1.64c.94,3.27,2,6.52,3.07,9.75s2.24,6.43,3.43,9.62c.6,1.59,1.2,3.18,1.85,4.75s1.31,3.14,2,4.67c.36.77.73,1.53,1.13,2.28s.81,1.49,1.25,2.2a20.35,20.35,0,0,0,1.44,2.09,9.37,9.37,0,0,0,1.8,1.76h0a.07.07,0,0,1,0,.09.08.08,0,0,1-.08,0,7.84,7.84,0,0,1-1.07-.74c-.33-.28-.64-.58-.94-.89a20.84,20.84,0,0,1-1.65-2,40.65,40.65,0,0,1-2.7-4.41,89.65,89.65,0,0,1-4.25-9.37c-1.26-3.19-2.36-6.44-3.38-9.71s-2-6.55-2.87-9.86h.91a17.21,17.21,0,0,0-.57,4.44,38.57,38.57,0,0,0,.27,4.55c.17,1.52.41,3,.69,4.54s.61,3,1,4.5c.7,3,1.52,6,2.42,8.89s1.88,5.86,2.95,8.74a.06.06,0,0,1,0,.08S301.55,193.72,301.53,193.69Z" transform="translate(-69.28 -44.64)"/><path class="cls-2" d="M390.41,136c0,11.45-9.82,19.87-11,19.87-3.93,0,2.45-8.18,2.45-19.63s-3.43-20.11-2.21-20.11S390.41,124.56,390.41,136Z" transform="translate(-69.28 -44.64)"/><path class="cls-2" d="M379.37,156a1.31,1.31,0,0,1-1.15-.47c-.61-.83,0-2.65.85-5.41a44.75,44.75,0,0,0,2.63-13.88,77.73,77.73,0,0,0-1.88-15.92c-.54-2.65-.76-3.83-.46-4.2a.3.3,0,0,1,.25-.12c.74,0,3.49,2.27,6,5.7a24.88,24.88,0,0,1,5,14.3,24.48,24.48,0,0,1-5.09,14.3C382.84,153.84,380,156,379.37,156Zm.24-39.75a.07.07,0,0,0-.06,0c-.24.29.09,1.92.51,4a78.1,78.1,0,0,1,1.88,16,44.74,44.74,0,0,1-2.64,13.95c-.82,2.6-1.42,4.47-.89,5.2a1.12,1.12,0,0,0,1,.36c1.26,0,10.91-8.53,10.91-19.75S380.85,116.26,379.61,116.26Z" transform="translate(-69.28 -44.64)"/><path class="cls-3" d="M384.64,119.69a8.64,8.64,0,0,1,.49,7.85s-2-5.39-2.7-6.86a38.12,38.12,0,0,0-4.51-5.85S383.49,117.67,384.64,119.69Z" transform="translate(-69.28 -44.64)"/><path class="cls-3" d="M363.75,156.41s3.49,2.56,10.11.83a11.73,11.73,0,0,0,8.31-7s-1.77,3.53-10.19,5.66C370.08,156.36,363.75,156.41,363.75,156.41Z" transform="translate(-69.28 -44.64)"/><path class="cls-2" d="M255.83,195.63c0,5.62-1.05,7.73-6.13,7.73-3.3,0-11.38,3.86-13,1-.88-1.56,2-5.14,2-7.12,0-2.81-.2-4.29,1.47-6.13s3.35-4.17,5.89-4.17a8.18,8.18,0,0,1,5.89,2.21C253.87,191,255.83,192.54,255.83,195.63Z" transform="translate(-69.28 -44.64)"/><path class="cls-2" d="M218.72,320.78c-3.63,1.89-5.3,2-6.76-.79-.94-1.82-5.76-5-4.37-6.85.76-1,3.88-.65,5.16-1.31,1.82-.95,2.72-1.55,4.39-1.25s3.66.44,4.39,1.85a4.7,4.7,0,0,1,.27,4C221.15,318.14,220.72,319.74,218.72,320.78Z" transform="translate(-69.28 -44.64)"/><path class="cls-2" d="M220.29,202.41c1,2-.46,2.89-1.74,5.18s-2.4,5.93-5.39,7.47c-2.11,1.09-5.49,4.81-7.51,5-3.68.31-5.64-4-6.94-6.49-1.09-2.11-.67-4.71.88-7.15,1.33-2.11,5.24-4.71,8-6.14,4-2.07,6.52-1.81,9.48-.63A6,6,0,0,1,220.29,202.41Z" transform="translate(-69.28 -44.64)"/><path class="cls-2" d="M239.64,220.2c1.1,2.62,4.46,4.24.15,6.05a37.74,37.74,0,0,1-9.58,1.91c-2.1-.13-3.33,2.21-5.86.62-1.41-.89.41-3.95,1.9-5.6a13.36,13.36,0,0,1,4.59-3c1.79-.76,2.95-3.84,4.53-3.78C237.58,216.49,239,218.67,239.64,220.2Z" transform="translate(-69.28 -44.64)"/><path class="cls-2" d="M288.22,176.62c-1.36,3.25-2.07-.25-6.14-.25s-10.79,6.71-10.79,3.19a10.49,10.49,0,0,1,3.38-6.4c.05,0,3.08-3.64,5.7-3.66,1.72,0,3.4,2.08,4.66,2.94C286.73,173.61,289.44,173.67,288.22,176.62Z" transform="translate(-69.28 -44.64)"/><path class="cls-2" d="M212.19,238.87c1.52,2.57,1,3.27-.88,6.22-1.17,1.86-3.83.27-5.42,4.34a6,6,0,0,1-6.09,4.17c-2.86-.19-6.64,1.77-8-.43-1.18-2-3.91-4.12-3-6.5,1-2.61,3.27-9.35,6.26-11.11,3.57-2.11,8,.49,11.1,1.42C208.06,237.53,211.26,237.29,212.19,238.87Z" transform="translate(-69.28 -44.64)"/><path class="cls-2" d="M213.62,253.9c-.16,1.73.88,2.32,1.58,3.62s1.35,2.53,2.68,2.53,2.12-2.2,3.31-3.16c1.58-1.26,3.76-.66,4.42-1.89,1.1-2.05,2.39-4.86,1.42-5.84-1.42-1.41-2.84.32-5.52-.31-1.34-.32-3.72,1.08-4.56,2.29C216.25,252.15,213.75,252.45,213.62,253.9Z" transform="translate(-69.28 -44.64)"/><path class="cls-2" d="M273.17,190.69c.64-.7,2.95,0,2.69-2.7-.16-1.76,3.65-2.9,5.16.66.21.51-.74,2.29-1.17,2.76a5.36,5.36,0,0,1-2.54,1c-1.68.35-1.67,1.6-3.36.71C273.25,192.79,271.34,192.7,273.17,190.69Z" transform="translate(-69.28 -44.64)"/><path class="cls-2" d="M180.39,221.66c-.86.59-2.09.59-3.48,1.56s-2.28,3.56-1.31,4.18c.46.3,2.84,2,3.44,1.72s4.37-4.76,4.41-5.4S180.91,221.3,180.39,221.66Z" transform="translate(-69.28 -44.64)"/><path class="cls-2" d="M315.4,151.9a7.09,7.09,0,0,0-.63,5.52c.42,2.12.89,3.08,2.33,4,2.39,1.59,3.17-1,6.16-5.52.55-.83,3.18-.63,4.24-2.33,2.14-3.42.66-6.21-1.29-7.5-1-.64-4.23.07-5.29,1.34C319.52,149.13,317.18,149.22,315.4,151.9Z" transform="translate(-69.28 -44.64)"/><path d="M269.82,355.78a.41.41,0,0,0,.26.11l.29,0H271a6.77,6.77,0,0,1,1.26.15,7.7,7.7,0,0,1,2.36.95,9.18,9.18,0,0,1,1.94,1.62,7.63,7.63,0,0,1,1.37,2.09c-.72-.44-1.37-.92-2-1.37s-1.28-.89-1.93-1.29a20.59,20.59,0,0,0-2-1.09l-1.09-.48a4.89,4.89,0,0,1-.57-.27,1.47,1.47,0,0,1-.28-.18A.45.45,0,0,1,269.82,355.78Z" transform="translate(-69.28 -44.64)"/><path class="cls-2" d="M169.53,241.8c-3.48,3.21.68,9.21-.48,12.26-2.06,5.41-8.36-2.37-13.06-7.24-2.51-2.59,3.4-7.17,4.28-7.56C166.66,236.48,172.31,239.24,169.53,241.8Z" transform="translate(-69.28 -44.64)"/><path class="cls-2" d="M406.91,240.66A147.16,147.16,0,0,1,378,237.27a.73.73,0,0,1,.33-1.43c.27.06,27,6.08,42.83,1.78,16.06-4.36,26.91-6.69,31.39-4.84a.74.74,0,0,1,.4,1,.73.73,0,0,1-1,.4c-4.08-1.68-15.12.74-30.45,4.9A57.31,57.31,0,0,1,406.91,240.66Z" transform="translate(-69.28 -44.64)"/><path class="cls-2" d="M188.69,318.3c-1.07,1.43,1.25,2-.36,3-1,.63-1.11,1.17-2.49,1.24-2.59.14-6.58-.17-5-3.91.57-1.33-.06-3.24,1.42-3.92.74-.33,3.72-1.95,4.63-1.95C189.66,312.79,190,316.57,188.69,318.3Z" transform="translate(-69.28 -44.64)"/><path class="cls-2" d="M210.92,301.24c.19,2-2.5,2.82-5.52,2.42-1.45-.19-5.51-1.08-5.51-2.42s1.94-2,3.48-2.22c1.14-.14,4.24.48,5.12.22C210.08,298.77,210.83,300.37,210.92,301.24Z" transform="translate(-69.28 -44.64)"/><path class="cls-2" d="M120.93,355.05,78.08,371.27l-8.48-22.4,8-3,5.39,14.24L91.16,357l-.68-1.78a29.46,29.46,0,0,1-2.15-9.3,12.18,12.18,0,0,1,2.33-7.43,14.36,14.36,0,0,1,7-5.25,12.6,12.6,0,0,1,13.93,2.1q2.82,2.39,4.83,7.71Zm-22.49-.82,11.62-4.4-.77-2q-2.12-5.6-4.14-6.53a5.6,5.6,0,0,0-4.49,0q-6.24,2.36-2.86,11.27Z" transform="translate(-69.28 -44.64)"/><path d="M77.93,371.58l-8.65-22.86,8.41-3.18,5.39,14.24,7.76-2.93-.59-1.55a29.7,29.7,0,0,1-2.17-9.39,12.57,12.57,0,0,1,2.38-7.57A14.65,14.65,0,0,1,97.53,333a12.84,12.84,0,0,1,14.18,2.15c1.9,1.6,3.55,4.23,4.9,7.81l4.63,12.23Zm-8-22.57L78.22,371l42.39-16.05-4.46-11.77c-1.32-3.5-2.92-6.06-4.76-7.61a12.35,12.35,0,0,0-13.69-2.06,14.15,14.15,0,0,0-6.84,5.16,12,12,0,0,0-2.29,7.28,29.33,29.33,0,0,0,2.14,9.23l.76,2-8.67,3.29-5.39-14.25Zm28.39,5.54-.73-1.92c-1.14-3-1.47-5.5-1-7.42a6.65,6.65,0,0,1,8.67-4.17c1.42.66,2.81,2.84,4.26,6.67l.86,2.27Zm4.72-13.5a6.4,6.4,0,0,0-2.27.45,5.5,5.5,0,0,0-3.69,3.83c-.46,1.82-.13,4.22,1,7.13l.55,1.46,11.17-4.23-.69-1.81c-1.38-3.65-2.73-5.8-4-6.39A4.81,4.81,0,0,0,103,341.05Z" transform="translate(-69.28 -44.64)"/><path class="cls-2" d="M72.61,313.8a18,18,0,0,1,.87-9.29,17.56,17.56,0,0,1,13.7-11.38,17.85,17.85,0,0,1,9.24.86,17.23,17.23,0,0,1,7.51,5.33,17.93,17.93,0,0,1,3.82,8.55A16.93,16.93,0,0,1,104.69,321a18,18,0,0,1-25.59,3.62A17,17,0,0,1,72.61,313.8Zm7.87-1.46a8.78,8.78,0,0,0,3.81,6.05,9.82,9.82,0,0,0,7.4,1.43,9.94,9.94,0,0,0,6.63-3.76,8.68,8.68,0,0,0,1.61-7A8.81,8.81,0,0,0,96.1,303a10.92,10.92,0,0,0-14,2.3A8.81,8.81,0,0,0,80.48,312.34Z" transform="translate(-69.28 -44.64)"/><path d="M89.89,328.69a18,18,0,0,1-17.52-14.85h0a18.36,18.36,0,0,1,.88-9.42,17.65,17.65,0,0,1,5.41-7.68,17.84,17.84,0,0,1,8.47-3.85,18.12,18.12,0,0,1,9.37.87,17.59,17.59,0,0,1,7.62,5.4,18.23,18.23,0,0,1,3.87,8.67,17.21,17.21,0,0,1-3.1,13.31,17.47,17.47,0,0,1-11.73,7.27A19.35,19.35,0,0,1,89.89,328.69Zm.31-35.57a17.71,17.71,0,0,0-3,.25,17.35,17.35,0,0,0-13.51,11.22,17.83,17.83,0,0,0-.86,9.17h0a17.53,17.53,0,0,0,20.23,14.17,17.06,17.06,0,0,0,11.41-7.07,16.75,16.75,0,0,0,3-12.95,17.85,17.85,0,0,0-3.77-8.44,17.14,17.14,0,0,0-7.41-5.25A17.78,17.78,0,0,0,90.2,293.12Zm-.55,27.12a9.52,9.52,0,0,1-5.49-1.65,9.63,9.63,0,0,1-2.29-13.42,10.12,10.12,0,0,1,6.71-3.84,10.23,10.23,0,0,1,7.66,1.47,9.1,9.1,0,0,1,3.93,6.26,9,9,0,0,1-1.65,7.15,10.26,10.26,0,0,1-6.79,3.85A12.53,12.53,0,0,1,89.65,320.24Zm-8.93-7.95a8.58,8.58,0,0,0,3.71,5.89,9.59,9.59,0,0,0,7.22,1.4,9.82,9.82,0,0,0,6.48-3.66,8.53,8.53,0,0,0,1.56-6.78A8.62,8.62,0,0,0,96,303.21a10.68,10.68,0,0,0-13.7,2.25A8.65,8.65,0,0,0,80.72,312.29Z" transform="translate(-69.28 -44.64)"/><path class="cls-2" d="M104.75,255.07l-.21,8.66-21.57,8,21.15,9.15-.21,8.63L70.38,274.19l.14-5.48Z" transform="translate(-69.28 -44.64)"/><path d="M104.15,289.84l-34-15.49.15-5.8.15-.06L105,254.71l-.22,9.19-21.15,7.81,20.74,9ZM70.63,274l33.05,15,.19-8.09-21.56-9.33,22-8.11.19-8.12L70.76,268.88Z" transform="translate(-69.28 -44.64)"/><path class="cls-2" d="M85.84,240l.49-2.48a31.32,31.32,0,0,1,2.39-7.88A9.12,9.12,0,0,1,93,225.54a10.6,10.6,0,0,1,6.82-.66,11.23,11.23,0,0,1,6.06,3,8.36,8.36,0,0,1,2.52,5.11,27.16,27.16,0,0,1-.65,7.76l-2.31,11.74L72.22,246l1.64-8.34Zm14.86,2.92.5-2.54a12.53,12.53,0,0,0,.32-3.35,3.86,3.86,0,0,0-.89-2,3.46,3.46,0,0,0-2.08-1.21q-4.27-.84-5.24,4.07l-.68,3.47Z" transform="translate(-69.28 -44.64)"/><path d="M105.67,252.78l-33.74-6.64,1.74-8.82,12,2.35.44-2.23a31.9,31.9,0,0,1,2.41-7.95,9.44,9.44,0,0,1,4.42-4.17,10.88,10.88,0,0,1,7-.68,11.54,11.54,0,0,1,6.19,3.07,8.65,8.65,0,0,1,2.59,5.26,28.06,28.06,0,0,1-.66,7.83Zm-33.16-7,32.77,6.44,2.26-11.5a27.35,27.35,0,0,0,.65-7.68,8.23,8.23,0,0,0-2.45-5,11.14,11.14,0,0,0-5.93-2.93,10.44,10.44,0,0,0-6.68.64,8.92,8.92,0,0,0-4.19,4,30.75,30.75,0,0,0-2.37,7.81L86,240.25l-12-2.35Zm28.38-2.59-8.55-1.68.73-3.71A5.78,5.78,0,0,1,95,234.17a4.38,4.38,0,0,1,3.65-.65,3.71,3.71,0,0,1,2.22,1.29,4.09,4.09,0,0,1,.94,2.15,12.18,12.18,0,0,1-.32,3.42Zm-8-2.07,7.59,1.49.46-2.3a12.4,12.4,0,0,0,.32-3.27,3.68,3.68,0,0,0-.84-1.9A3.2,3.2,0,0,0,98.5,234a3.91,3.91,0,0,0-3.25.55,5.41,5.41,0,0,0-1.7,3.33Z" transform="translate(-69.28 -44.64)"/><path class="cls-2" d="M130.69,178l-20.08,44.59-30.9-13.91L83.2,201l23.46,10.56,4.8-10.65L88,190.31l3.49-7.75L115,193.12l4.8-10.68L96.29,171.88l3.49-7.75Z" transform="translate(-69.28 -44.64)"/><path d="M110.74,223l-.23-.1-31.12-14,3.69-8.2,23.46,10.56,4.59-10.2L87.67,190.44l3.69-8.2,23.46,10.56,4.61-10.24L96,172l3.69-8.2.23.1,31.12,14-.1.23ZM80,208.6l30.46,13.71,19.87-44.15L99.91,164.45l-3.29,7.31,23.46,10.56-5,11.13L91.61,182.88l-3.29,7.31,23.46,10.56-5,11.1L83.32,201.29Z" transform="translate(-69.28 -44.64)"/><path class="cls-2" d="M123.91,132.69l5.32-6.63,26.43,21.22-5.33,6.63-2.79-2.24a16.78,16.78,0,0,1-.47,6,14,14,0,0,1-2.58,4.88,15.12,15.12,0,0,1-11.08,5.67,17.8,17.8,0,0,1-12.88-4.19q-6.12-4.92-7.13-11.67a14.76,14.76,0,0,1,3.15-11.92,14.16,14.16,0,0,1,4.48-3.74,15.58,15.58,0,0,1,5.79-1.7ZM123.75,144a8.57,8.57,0,0,0-1.93,6.85,10.07,10.07,0,0,0,3.94,6.51,10.18,10.18,0,0,0,7.3,2.46,8.63,8.63,0,0,0,6.3-3.32,8.77,8.77,0,0,0,2-6.93,10.2,10.2,0,0,0-4-6.63,9.85,9.85,0,0,0-7.23-2.43A8.87,8.87,0,0,0,123.75,144Z" transform="translate(-69.28 -44.64)"/><path d="M132,168.55a18.23,18.23,0,0,1-11.61-4.3,18.54,18.54,0,0,1-7.22-11.83,15.1,15.1,0,0,1,3.19-12.11,14.64,14.64,0,0,1,4.56-3.8,15.66,15.66,0,0,1,5.3-1.65l-2.65-2.13,5.63-7L156,147.24l-5.63,7-2.55-2a16.52,16.52,0,0,1-.51,5.55,14.43,14.43,0,0,1-2.63,5,15.39,15.39,0,0,1-11.25,5.75C132.94,168.53,132.47,168.55,132,168.55Zm-7.74-35.9,3.19,2.57-.59.06a15.38,15.38,0,0,0-5.71,1.66,14.05,14.05,0,0,0-4.4,3.68,14.58,14.58,0,0,0-3.09,11.73,18.06,18.06,0,0,0,7,11.52,17.59,17.59,0,0,0,12.7,4.13,14.91,14.91,0,0,0,10.91-5.57,14,14,0,0,0,2.54-4.8,16.53,16.53,0,0,0,.45-5.94l0-.57,3,2.44,5-6.24-26-20.91Zm8.07,27.47a10.56,10.56,0,0,1-6.71-2.54,10.31,10.31,0,0,1-4-6.66,8.86,8.86,0,0,1,2-7h0A9.14,9.14,0,0,1,130,140.3a10.19,10.19,0,0,1,7.42,2.48,10.44,10.44,0,0,1,4.13,6.79,9,9,0,0,1-2,7.11,8.86,8.86,0,0,1-6.47,3.41C132.83,160.11,132.57,160.12,132.32,160.12Zm-1.44-19.37a7,7,0,0,0-.79,0,8.67,8.67,0,0,0-6.15,3.39h0a8.41,8.41,0,0,0-1.87,6.67,10.88,10.88,0,0,0,11,8.75,8.38,8.38,0,0,0,6.13-3.23,8.53,8.53,0,0,0,1.93-6.74,11.1,11.1,0,0,0-10.22-8.88Z" transform="translate(-69.28 -44.64)"/><path class="cls-2" d="M155.94,128.5a8.78,8.78,0,0,1-5.65.33,9.57,9.57,0,0,1-5-3.15,10.64,10.64,0,0,1-2.65-6.42,9.22,9.22,0,0,1,1.58-6.05,42.76,42.76,0,0,1,6.59-6.6l6.55-5.57,22,25.79-6.48,5.52-8-9.34-1.25,1.07,1.79,14.59-7.66,6.53Zm4.82-10.35L155.49,112l-2.26,1.92q-3.69,3.15-1.06,6.23t6.76-.4Z" transform="translate(-69.28 -44.64)"/><path d="M157.58,145.69l-1.85-16.84a9.1,9.1,0,0,1-5.5.22,9.91,9.91,0,0,1-5.13-3.23,10.87,10.87,0,0,1-2.7-6.57,9.48,9.48,0,0,1,1.62-6.2,42.13,42.13,0,0,1,6.64-6.64l6.73-5.74,22.29,26.17-6.85,5.84-8-9.35-1,.83,1.79,14.59Zm-1.43-17.54L158,144.71l7.21-6.14L163.39,124l1.54-1.32,8,9.34,6.1-5.19-21.66-25.43L151,106.8a41.83,41.83,0,0,0-6.55,6.55,9,9,0,0,0-1.53,5.9,10.44,10.44,0,0,0,2.58,6.27,9.44,9.44,0,0,0,4.89,3.08,8.63,8.63,0,0,0,5.49-.32ZM155,121.82a3.88,3.88,0,0,1-3-1.55,4,4,0,0,1-1.1-3.3,5.77,5.77,0,0,1,2.19-3.27l2.45-2.09,5.59,6.56-2,1.73A6.68,6.68,0,0,1,155,121.82Zm.49-9.52-2.07,1.77a5.41,5.41,0,0,0-2,3,3.53,3.53,0,0,0,1,2.9c1.68,2,3.78,1.83,6.42-.43l1.65-1.4Z" transform="translate(-69.28 -44.64)"/><path class="cls-2" d="M210.08,86.4l-1.61-.8-4,24.91-9.61,3.82,6-30.9L179.39,71.17l9.75-3.87L206.73,78l-6.06-15.25,8.22-3.27,6.05,15.24,5.48-19.82L230.2,51,223,74.63,248.54,93l-9.62,3.82-20-15.37-.62,1.68,7.5,18.9-8.22,3.27Z" transform="translate(-69.28 -44.64)"/><path d="M194.53,114.72l6-31.17-21.7-12.42L189.17,67l17.06,10.36-5.88-14.8L209,59.13l5.87,14.79,5.31-19.23,10.38-4.12-7.26,24L249,93.07l-10.15,4L219,81.85l-.47,1.28,7.56,19-8.67,3.45-7.57-19.05-1.22-.6-4,24.72ZM180,71.21,201.07,83.3l-5.89,30.64,9.06-3.61,4-25.1,2,1L217.72,105l7.77-3.08L218,83.13l.77-2.08L239,96.54l9.07-3.6L222.75,74.73l7.07-23.33-9.2,3.66L215,75.46l-6.23-15.69L201,62.85l6.24,15.71-18.11-11Z" transform="translate(-69.28 -44.64)"/><path class="cls-2" d="M272.28,57.22l8.45-1,4.06,33.65-8.44,1-.43-3.56a16.82,16.82,0,0,1-4.55,4A13.91,13.91,0,0,1,266.11,93a15.1,15.1,0,0,1-11.89-3.69,17.75,17.75,0,0,1-6.27-12Q247,69.51,251,64a14.75,14.75,0,0,1,10.58-6.33,14.38,14.38,0,0,1,5.82.46,15.74,15.74,0,0,1,5.32,2.84Zm-8,8a8.58,8.58,0,0,0-6.17,3.55,10,10,0,0,0-1.73,7.41,10.13,10.13,0,0,0,3.5,6.86,8.61,8.61,0,0,0,6.83,2,8.76,8.76,0,0,0,6.26-3.57,10.18,10.18,0,0,0,1.74-7.56,9.86,9.86,0,0,0-3.48-6.8A8.88,8.88,0,0,0,264.25,65.22Z" transform="translate(-69.28 -44.64)"/><path d="M264.2,93.34a15.5,15.5,0,0,1-10.14-3.87,18.06,18.06,0,0,1-6.36-12.15c-.63-5.23.41-9.78,3.11-13.5a15.07,15.07,0,0,1,10.75-6.43,14.5,14.5,0,0,1,5.92.47,15.64,15.64,0,0,1,4.94,2.52L272,57l8.93-1.08,4.12,34.13-8.93,1.08-.39-3.24a16.56,16.56,0,0,1-4.25,3.61,14.2,14.2,0,0,1-5.35,1.71A16,16,0,0,1,264.2,93.34Zm-.79-35.57a13.54,13.54,0,0,0-1.79.11,14.61,14.61,0,0,0-10.42,6.23,18.05,18.05,0,0,0-3,13.15,17.6,17.6,0,0,0,6.19,11.84,14.92,14.92,0,0,0,11.7,3.64,13.85,13.85,0,0,0,5.17-1.66,16.37,16.37,0,0,0,4.48-3.93l.36-.44.47,3.88,8-1-4-33.16-7.95,1,.49,4.07-.47-.38a15.69,15.69,0,0,0-5.24-2.79A14,14,0,0,0,263.41,57.77Zm2.09,27.62a8.85,8.85,0,0,1-5.81-2.16,10.47,10.47,0,0,1-3.59-7,10.36,10.36,0,0,1,1.78-7.58A8.86,8.86,0,0,1,264.22,65h0a9.15,9.15,0,0,1,7.14,2,10.21,10.21,0,0,1,3.56,7,10.43,10.43,0,0,1-1.79,7.74,9,9,0,0,1-6.43,3.66A9.8,9.8,0,0,1,265.5,85.39Zm-1.22-19.93a8.39,8.39,0,0,0-6,3.46,9.83,9.83,0,0,0-1.69,7.23,9.93,9.93,0,0,0,3.42,6.7,8.36,8.36,0,0,0,6.64,2,8.57,8.57,0,0,0,6.09-3.46,10,10,0,0,0,1.7-7.39,9.77,9.77,0,0,0-3.39-6.64,8.71,8.71,0,0,0-6.77-1.87Z" transform="translate(-69.28 -44.64)"/><path class="cls-2" d="M327.8,45.23l-.72,8A68.69,68.69,0,0,1,320,53a73.29,73.29,0,0,0-9.41-.31,12.49,12.49,0,0,0-5.74,1.73,10.08,10.08,0,0,0-3.75,3.73,19.28,19.28,0,0,0-1.81,6.45q4.46-8.45,13.39-7.64a15.6,15.6,0,0,1,10.92,5.83,16.78,16.78,0,0,1,3.68,12.8,17.74,17.74,0,0,1-6.34,12.53,17.32,17.32,0,0,1-13.2,4A17.72,17.72,0,0,1,292,77.82a44.72,44.72,0,0,1-.32-11.27,33.85,33.85,0,0,1,3-12.19,16.41,16.41,0,0,1,5.63-6.69,16.88,16.88,0,0,1,7.45-2.55,85.58,85.58,0,0,1,12.05-.06Q325.17,45.3,327.8,45.23Zm-9.11,30A10,10,0,0,0,316.78,68a9.39,9.39,0,0,0-13.32-1.2,10.85,10.85,0,0,0-1.3,14.1,8.79,8.79,0,0,0,6.34,3.32,9,9,0,0,0,6.86-2.12A9.74,9.74,0,0,0,318.69,75.27Z" transform="translate(-69.28 -44.64)"/><path d="M309.6,92.49c-.62,0-1.26,0-1.9-.09a17.94,17.94,0,0,1-16-14.54,45.69,45.69,0,0,1-.32-11.33,34.39,34.39,0,0,1,3.05-12.28,16.83,16.83,0,0,1,5.72-6.79,17.16,17.16,0,0,1,7.55-2.58,86.32,86.32,0,0,1,12.1-.06c3.55.15,6.23.21,8,.16h.27l-.77,8.5h-.22c-2.45.05-4.84,0-7.12-.2a71,71,0,0,0-9.38-.31A12.36,12.36,0,0,0,305,54.65a9.85,9.85,0,0,0-3.67,3.64,17.16,17.16,0,0,0-1.57,5c3-4.88,7.36-7.1,13-6.59a15.91,15.91,0,0,1,11.09,5.91,17.08,17.08,0,0,1,3.73,13,18,18,0,0,1-6.42,12.7A17.46,17.46,0,0,1,309.6,92.49Zm3.69-47.36a52.51,52.51,0,0,0-5.52.24,16.67,16.67,0,0,0-7.34,2.5,16.46,16.46,0,0,0-5.55,6.6,34.1,34.1,0,0,0-3,12.1,44.81,44.81,0,0,0,.32,11.22,17.47,17.47,0,0,0,15.53,14.13,17.21,17.21,0,0,0,13-4A17.6,17.6,0,0,0,327,75.59,16.6,16.6,0,0,0,323.39,63a15.42,15.42,0,0,0-10.76-5.74c-5.81-.53-10.23,2-13.15,7.51L298.82,66l.2-1.4a20.06,20.06,0,0,1,1.84-6.54,10.37,10.37,0,0,1,3.85-3.82,12.64,12.64,0,0,1,5.84-1.76,72,72,0,0,1,9.45.31c2.19.18,4.5.25,6.85.21l.68-7.51c-1.75,0-4.35,0-7.74-.17Q316.15,45.13,313.29,45.13Zm-3.82,39.42c-.32,0-.65,0-1,0A9,9,0,0,1,302,81.09a11.11,11.11,0,0,1,1.32-14.43A9.66,9.66,0,0,1,317,67.89a10.29,10.29,0,0,1,1.95,7.4,10,10,0,0,1-3.41,7A9.17,9.17,0,0,1,309.47,84.55Zm-.11-19.7A8.36,8.36,0,0,0,303.62,67a9.6,9.6,0,0,0-3.17,6.58,9.72,9.72,0,0,0,1.9,7.18A8.58,8.58,0,0,0,308.53,84,8.74,8.74,0,0,0,315.2,82a9.53,9.53,0,0,0,3.25-6.71h0a9.86,9.86,0,0,0-1.86-7,8.49,8.49,0,0,0-6.29-3.29C310,64.87,309.67,64.85,309.36,64.85Z" transform="translate(-69.28 -44.64)"/><path class="cls-2" d="M364.29,69.09l8.11,2.53L362.3,104l-8.11-2.53L355.25,98a16.76,16.76,0,0,1-5.78,1.77,13.92,13.92,0,0,1-5.49-.63,15,15,0,0,1-9.32-8.24,17.74,17.74,0,0,1-.8-13.52q2.34-7.49,8.26-10.89a14.74,14.74,0,0,1,12.24-1.43,14.26,14.26,0,0,1,5.12,2.8,15.62,15.62,0,0,1,3.69,4.78Zm-10.62,4a8.58,8.58,0,0,0-7.08.7,11.14,11.14,0,0,0-4.24,13.74,8.6,8.6,0,0,0,5.39,4.65,8.76,8.76,0,0,0,7.18-.68,10.2,10.2,0,0,0,4.69-6.18,9.92,9.92,0,0,0-.38-7.63A8.87,8.87,0,0,0,353.67,73.09Z" transform="translate(-69.28 -44.64)"/><path d="M362.46,104.28l-8.58-2.68,1-3.12a16.21,16.21,0,0,1-5.36,1.55,14.25,14.25,0,0,1-5.59-.63A15.38,15.38,0,0,1,334.44,91a18.1,18.1,0,0,1-.82-13.7,18.57,18.57,0,0,1,8.37-11,15.09,15.09,0,0,1,12.44-1.45,14.69,14.69,0,0,1,5.21,2.86A15.43,15.43,0,0,1,363.11,72l1-3.25,8.58,2.68-.07.24Zm-8-3,7.65,2.39,10-31.88-7.65-2.39-1.22,3.9-.27-.53a15.56,15.56,0,0,0-3.64-4.7,14,14,0,0,0-5-2.76,14.61,14.61,0,0,0-12.05,1.41,18.06,18.06,0,0,0-8.15,10.76,17.58,17.58,0,0,0,.79,13.33,14.9,14.9,0,0,0,9.17,8.12,13.83,13.83,0,0,0,5.4.61,16.56,16.56,0,0,0,5.7-1.74l.51-.25Zm-3.85-8.39a10.1,10.1,0,0,1-3-.47,8.9,8.9,0,0,1-5.54-4.78,10.42,10.42,0,0,1-.39-7.87,10.3,10.3,0,0,1,4.73-6.19,8.89,8.89,0,0,1,7.28-.73h0a9.15,9.15,0,0,1,5.7,4.73,10.2,10.2,0,0,1,.4,7.81A10.52,10.52,0,0,1,355,91.72,8.92,8.92,0,0,1,350.64,92.89Zm.22-20A8.31,8.31,0,0,0,346.71,74a9.85,9.85,0,0,0-4.5,5.9,10,10,0,0,0,.36,7.51A8.42,8.42,0,0,0,347.82,92a8.57,8.57,0,0,0,7-.66,10,10,0,0,0,4.58-6.05A9.72,9.72,0,0,0,359,77.8a8.67,8.67,0,0,0-5.41-4.48h0A9.22,9.22,0,0,0,350.86,72.88Z" transform="translate(-69.28 -44.64)"/></svg>